<svg xmlns="http://www.w3.org/2000/svg" xmlns:xlink="http://www.w3.org/1999/xlink" width="473.543" height="349.822" viewBox="0 0 473.543 349.822">
  <defs>
    <linearGradient id="linear-gradient" x1="-0.084" y1="0.813" x2="0.841" y2="0.5" gradientUnits="objectBoundingBox">
      <stop offset="0" stop-color="#250e73"/>
      <stop offset="1" stop-color="#701c67"/>
    </linearGradient>
    <linearGradient id="linear-gradient-2" x1="0.666" y1="0.34" x2="0.084" y2="1.144" xlink:href="#linear-gradient"/>
    <linearGradient id="linear-gradient-5" x1="0.75" y1="0.067" x2="0.25" y2="0.933" gradientUnits="objectBoundingBox">
      <stop offset="0" stop-color="#ffd57e"/>
      <stop offset="0.989" stop-color="#fff2a9"/>
    </linearGradient>
    <linearGradient id="linear-gradient-11" x1="0.5" y1="0.396" x2="0.5" y2="1.147" xlink:href="#linear-gradient"/>
    <linearGradient id="linear-gradient-25" x1="1" y1="0.5" x2="0" y2="0.5" xlink:href="#linear-gradient-5"/>
    <linearGradient id="linear-gradient-43" x1="0.525" y1="1.241" x2="0.539" y2="-0.028" gradientUnits="objectBoundingBox">
      <stop offset="0" stop-color="#701c67" stop-opacity="0.729"/>
      <stop offset="1" stop-color="#250e73"/>
    </linearGradient>
    <linearGradient id="linear-gradient-44" x1="0.083" x2="0.736" y2="0.701" gradientUnits="objectBoundingBox">
      <stop offset="0" stop-color="#701c67" stop-opacity="0.98"/>
      <stop offset="1" stop-color="#250e73"/>
    </linearGradient>
    <linearGradient id="linear-gradient-45" x1="1.147" y1="-0.26" x2="0.366" y2="0.744" gradientUnits="objectBoundingBox">
      <stop offset="0" stop-color="#701c67"/>
      <stop offset="1" stop-color="#250e73"/>
    </linearGradient>
    <linearGradient id="linear-gradient-46" x1="0.5" y1="1" x2="0.5" gradientUnits="objectBoundingBox">
      <stop offset="0" stop-color="#701c67" stop-opacity="0.91"/>
      <stop offset="1" stop-color="#250e73"/>
    </linearGradient>
    <linearGradient id="linear-gradient-47" x1="0.894" y1="0.177" x2="-1.146" y2="2.255" gradientUnits="objectBoundingBox">
      <stop offset="0" stop-color="#250e73"/>
      <stop offset="1" stop-color="#701c67" stop-opacity="0.871"/>
    </linearGradient>
  </defs>
  <g id="illustration" transform="translate(40.08 -89.632)">
    <path id="Path_64" data-name="Path 64" d="M124.7,363.067c57.218,58.65,99.05,35.3,158.346,2.119,55.814-31.23,127.584-5.361,175.181-44.91,70.753-58.789,70.494-287.715-60.646-270.127-66.134,8.869-99.215,112.406-169,100.463-57.253-9.8-67.641-97.357-132.3-92.841C-42.64,67.472,79.451,316.686,124.7,363.067Z" transform="translate(-71.9 40.446)" fill="#fff" opacity="0.6"/>
    <g id="Group_361" data-name="Group 361" transform="translate(11.468 95.957)">
      <g id="Group_364" data-name="Group 364" transform="translate(0 0)">
        <g id="Group_363" data-name="Group 363" transform="translate(11.508 36.462)">
          <g id="Group_260" data-name="Group 260" transform="translate(96.287)" opacity="0.2">
            <g id="Group_259" data-name="Group 259" transform="translate(43.163 80.086)" opacity="0.5">
              <rect id="Rectangle_35" data-name="Rectangle 35" width="3.862" height="203.833" transform="translate(0)" fill="url(#linear-gradient)"/>
            </g>
            <path id="Path_761" data-name="Path 761" d="M305.873,395.64s.979-41.279-45.019-50.716C260.854,344.924,256.93,390.136,305.873,395.64Z" transform="translate(-260.779 -149.359)" fill="url(#linear-gradient-2)"/>
            <path id="Path_762" data-name="Path 762" d="M293.156,316.163s.7-29.639-32.323-36.413C260.833,279.75,258.015,312.212,293.156,316.163Z" transform="translate(-248.062 -184.664)" fill="url(#linear-gradient-2)"/>
            <path id="Path_763" data-name="Path 763" d="M244.4,347.259s-.547-23.121,25.214-28.406C269.612,318.853,271.811,344.176,244.4,347.259Z" transform="translate(-199.302 -163.482)" fill="url(#linear-gradient-2)"/>
            <path id="Path_764" data-name="Path 764" d="M275.53,218.074A41.974,41.974,0,1,0,317.5,260.048,41.975,41.975,0,0,0,275.53,218.074Zm9.744,57.473a14.047,14.047,0,0,1-8.021,4.156v2.673a2.6,2.6,0,0,1-2.613,2.673,2.66,2.66,0,0,1-2.7-2.673v-2.613a15.555,15.555,0,0,1-6.924-2.675,12.557,12.557,0,0,1-4.281-4.906,3.755,3.755,0,0,1-.407-1.671,3.962,3.962,0,0,1,.159-1.007,3.059,3.059,0,0,1,1.478-1.637,2.853,2.853,0,0,1,1.384-.407c.913,0,1.886.631,2.892,1.89a9.465,9.465,0,0,0,8.436,4.34,8.9,8.9,0,0,0,5.16-1.508,5.1,5.1,0,0,0,2.39-4.281,4.339,4.339,0,0,0-2.42-3.964,16.009,16.009,0,0,0-4.25-1.482l-.819-.219c-4.183-.788-7.362-2.078-9.563-3.81a9.5,9.5,0,0,1-3.9-7.832,10.768,10.768,0,0,1,3.148-7.585,13.571,13.571,0,0,1,7.52-3.808v-2.357a2.663,2.663,0,0,1,.819-1.919,2.572,2.572,0,0,1,1.919-.759,2.475,2.475,0,0,1,1.825.759,2.741,2.741,0,0,1,.754,1.919V239.2a12.78,12.78,0,0,1,9.252,5.664,2.4,2.4,0,0,1,.347,1.195,5.818,5.818,0,0,1-.065.6,3.348,3.348,0,0,1-.848,1.479,2.979,2.979,0,0,1-2.047.754,2.908,2.908,0,0,1-1.856-.564,14.308,14.308,0,0,0-3.3-2.328,10.378,10.378,0,0,0-4.152-.757,8.454,8.454,0,0,0-4.91,1.417,4.545,4.545,0,0,0-2.108,3.87c0,1.8.976,2.957,2.736,3.839a27.154,27.154,0,0,0,6.389,1.856,21.373,21.373,0,0,1,8.117,3.62,9.432,9.432,0,0,1,3.651,7.709A11.575,11.575,0,0,1,285.273,275.547Z" transform="translate(-230.436 -218.074)" fill="url(#linear-gradient-5)"/>
          </g>
          <g id="Group_262" data-name="Group 262" transform="translate(35.903 98.508)" opacity="0.2">
            <g id="Group_261" data-name="Group 261" transform="translate(27.314 50.68)">
              <rect id="Rectangle_36" data-name="Rectangle 36" width="2.444" height="134.731" transform="translate(0)" opacity="0.5" fill="url(#linear-gradient)"/>
            </g>
            <path id="Path_765" data-name="Path 765" d="M339.223,394.336s.618-26.123-28.489-32.094C310.734,362.242,308.251,390.853,339.223,394.336Z" transform="translate(-310.686 -238.487)" fill="url(#linear-gradient-2)"/>
            <path id="Path_766" data-name="Path 766" d="M331.176,344.043s.444-18.756-20.455-23.044C310.721,321,308.938,341.542,331.176,344.043Z" transform="translate(-302.639 -260.828)" fill="url(#linear-gradient-2)"/>
            <path id="Path_767" data-name="Path 767" d="M300.32,363.719s-.347-14.631,15.955-17.975C316.275,345.744,317.666,361.768,300.32,363.719Z" transform="translate(-271.782 -247.424)" fill="url(#linear-gradient-2)"/>
            <path id="Path_768" data-name="Path 768" d="M320.019,281.97a26.562,26.562,0,1,0,26.562,26.562A26.561,26.561,0,0,0,320.019,281.97Zm6.167,36.37a8.887,8.887,0,0,1-5.075,2.63v1.691a1.648,1.648,0,0,1-1.654,1.693,1.684,1.684,0,0,1-1.711-1.693v-1.654a9.821,9.821,0,0,1-4.382-1.691,7.951,7.951,0,0,1-2.709-3.105,2.368,2.368,0,0,1-.258-1.058,2.482,2.482,0,0,1,.1-.637,1.936,1.936,0,0,1,.936-1.036,1.8,1.8,0,0,1,.876-.258,2.565,2.565,0,0,1,1.83,1.2,5.993,5.993,0,0,0,5.339,2.746,5.64,5.64,0,0,0,3.265-.954,3.231,3.231,0,0,0,1.512-2.709,2.746,2.746,0,0,0-1.532-2.508,10.1,10.1,0,0,0-2.689-.937l-.518-.139a13.95,13.95,0,0,1-6.053-2.41,6.018,6.018,0,0,1-2.47-4.958,6.809,6.809,0,0,1,1.992-4.8,8.578,8.578,0,0,1,4.759-2.411v-1.492a1.68,1.68,0,0,1,.518-1.213,1.626,1.626,0,0,1,1.215-.481,1.561,1.561,0,0,1,1.155.481,1.73,1.73,0,0,1,.478,1.213v1.492a8.091,8.091,0,0,1,5.854,3.584,1.52,1.52,0,0,1,.219.757c0,.1-.022.219-.04.379a2.134,2.134,0,0,1-.537.936,1.889,1.889,0,0,1-1.3.476,1.832,1.832,0,0,1-1.173-.358,9.119,9.119,0,0,0-2.091-1.472,6.592,6.592,0,0,0-2.629-.479,5.347,5.347,0,0,0-3.107.9,2.874,2.874,0,0,0-1.335,2.448,2.617,2.617,0,0,0,1.733,2.43,17.225,17.225,0,0,0,4.044,1.175,13.514,13.514,0,0,1,5.135,2.291,5.968,5.968,0,0,1,2.309,4.878A7.325,7.325,0,0,1,326.186,318.34Z" transform="translate(-291.484 -281.97)" fill="url(#linear-gradient-5)"/>
          </g>
          <g id="Group_267" data-name="Group 267" transform="translate(67.568 107.243)">
            <g id="Group_263" data-name="Group 263" transform="translate(32.055 58.397)">
              <rect id="Rectangle_37" data-name="Rectangle 37" width="3.254" height="118.279" transform="translate(0)" fill="url(#linear-gradient-11)"/>
            </g>
            <path id="Path_769" data-name="Path 769" d="M310.217,385.126s.509-21.428-23.369-26.326C286.848,358.8,284.812,382.269,310.217,385.126Z" transform="translate(-276.534 -249.085)" fill="url(#linear-gradient-2)"/>
            <g id="Group_266" data-name="Group 266" transform="translate(0 0)">
              <ellipse id="Ellipse_38" data-name="Ellipse 38" cx="27.968" cy="27.968" rx="27.968" ry="27.968" transform="translate(12.952 67.368) rotate(-103.388)" fill="url(#linear-gradient-5)"/>
              <g id="Group_265" data-name="Group 265" transform="translate(25.079 16.459)" opacity="0.2" style="mix-blend-mode: multiply;isolation: isolate">
                <g id="Group_264" data-name="Group 264">
                  <path id="Path_770" data-name="Path 770" d="M287.971,330.414v-1.739a10.389,10.389,0,0,1-4.608-1.779,8.366,8.366,0,0,1-2.851-3.27,2.446,2.446,0,0,1-.273-1.11,2.533,2.533,0,0,1,.1-.671,2.041,2.041,0,0,1,.985-1.09,1.884,1.884,0,0,1,.922-.273,2.708,2.708,0,0,1,1.929,1.258,6.3,6.3,0,0,0,5.615,2.892,5.94,5.94,0,0,0,3.436-1.007,3.394,3.394,0,0,0,1.591-2.852,2.9,2.9,0,0,0-1.611-2.641,10.835,10.835,0,0,0-2.831-.982l-.544-.148a14.623,14.623,0,0,1-6.369-2.533,6.334,6.334,0,0,1-2.6-5.219,7.177,7.177,0,0,1,2.094-5.051,9.037,9.037,0,0,1,5.009-2.536v-1.573a1.784,1.784,0,0,1,.547-1.278,1.721,1.721,0,0,1,1.277-.5,1.647,1.647,0,0,1,1.215.5,1.827,1.827,0,0,1,.506,1.278v1.573a8.508,8.508,0,0,1,6.159,3.772,1.607,1.607,0,0,1,.231.8,3.327,3.327,0,0,1-.045.4,2.2,2.2,0,0,1-.566.982,1.966,1.966,0,0,1-1.36.506,1.935,1.935,0,0,1-1.236-.378,9.608,9.608,0,0,0-2.2-1.551,6.937,6.937,0,0,0-2.764-.5,5.623,5.623,0,0,0-3.27.944,3.027,3.027,0,0,0-1.4,2.578,2.752,2.752,0,0,0,1.821,2.555A17.93,17.93,0,0,0,291.136,313a14.252,14.252,0,0,1,5.407,2.41,6.289,6.289,0,0,1,2.431,5.135,7.722,7.722,0,0,1-2.117,5.324,9.364,9.364,0,0,1-5.342,2.764v1.781a1.734,1.734,0,0,1-1.742,1.782A1.772,1.772,0,0,1,287.971,330.414Z" transform="translate(-280.239 -298.311)" fill="#ff791f"/>
                </g>
              </g>
            </g>
          </g>
          <g id="Group_272" data-name="Group 272" transform="translate(14.883 79.351)">
            <g id="Group_268" data-name="Group 268" transform="translate(158.711 58.322)">
              <rect id="Rectangle_38" data-name="Rectangle 38" width="3.254" height="146.246" transform="translate(0)" fill="url(#linear-gradient-11)"/>
            </g>
            <path id="Path_771" data-name="Path 771" d="M277.05,392.467s.825-34.787-37.938-42.737C239.112,349.73,235.807,387.828,277.05,392.467Z" transform="translate(-117.051 -226.107)" fill="url(#linear-gradient-2)"/>
            <path id="Path_772" data-name="Path 772" d="M261.078,341.789s.478-20.165-21.992-24.775C239.086,317.014,237.17,339.1,261.078,341.789Z" transform="translate(-101.079 -243.829)" fill="url(#linear-gradient-2)"/>
            <path id="Path_773" data-name="Path 773" d="M219.3,364.245s-.654-27.57,30.066-33.871C249.364,330.374,251.985,360.568,219.3,364.245Z" transform="translate(-58.96 -236.592)" fill="url(#linear-gradient-2)"/>
            <g id="Group_271" data-name="Group 271" transform="translate(126.728 0)">
              <circle id="Ellipse_39" data-name="Ellipse 39" cx="27.968" cy="27.968" r="27.968" transform="translate(12.752 67.216) rotate(-103.178)" fill="url(#linear-gradient-5)"/>
              <g id="Group_270" data-name="Group 270" transform="translate(25.003 16.381)" opacity="0.2" style="mix-blend-mode: multiply;isolation: isolate">
                <g id="Group_269" data-name="Group 269">
                  <path id="Path_774" data-name="Path 774" d="M239.993,312.27v-1.738a10.38,10.38,0,0,1-4.608-1.781,8.358,8.358,0,0,1-2.851-3.27,2.456,2.456,0,0,1-.273-1.109,2.586,2.586,0,0,1,.1-.671,2.029,2.029,0,0,1,.985-1.09,1.878,1.878,0,0,1,.922-.274,2.708,2.708,0,0,1,1.929,1.26,6.3,6.3,0,0,0,5.616,2.892,5.928,5.928,0,0,0,3.435-1.008,3.4,3.4,0,0,0,1.593-2.851,2.891,2.891,0,0,0-1.611-2.638,10.536,10.536,0,0,0-2.832-.985l-.543-.15a14.618,14.618,0,0,1-6.37-2.533,6.336,6.336,0,0,1-2.6-5.219,7.169,7.169,0,0,1,2.1-5.049,9.013,9.013,0,0,1,5.007-2.536V281.95a1.782,1.782,0,0,1,.547-1.278,1.719,1.719,0,0,1,1.278-.5,1.643,1.643,0,0,1,1.213.5,1.817,1.817,0,0,1,.506,1.278v1.573a8.5,8.5,0,0,1,6.159,3.773,1.59,1.59,0,0,1,.231.794,3.643,3.643,0,0,1-.043.4,2.2,2.2,0,0,1-.566.982,1.976,1.976,0,0,1-1.361.506,1.942,1.942,0,0,1-1.236-.379,9.662,9.662,0,0,0-2.2-1.551,6.977,6.977,0,0,0-2.766-.5,5.615,5.615,0,0,0-3.27.944,3.027,3.027,0,0,0-1.4,2.578,2.754,2.754,0,0,0,1.821,2.555,18,18,0,0,0,4.257,1.236,14.2,14.2,0,0,1,5.405,2.41A6.289,6.289,0,0,1,251,302.4a7.715,7.715,0,0,1-2.117,5.322,9.351,9.351,0,0,1-5.342,2.766v1.779a1.735,1.735,0,0,1-1.742,1.784A1.773,1.773,0,0,1,239.993,312.27Z" transform="translate(-232.261 -280.169)" fill="#ff791f"/>
                </g>
              </g>
            </g>
            <path id="Path_856" data-name="Path 856" d="M352.417,328.106s.594-24.976-27.239-30.684C325.179,297.422,322.806,324.776,352.417,328.106Z" transform="translate(-325.133 -254.442)" fill="url(#linear-gradient)"/>
          </g>
          <g id="Group_277" data-name="Group 277" transform="translate(0 35.407)">
            <g id="Group_273" data-name="Group 273" transform="translate(40.54 74.283)">
              <rect id="Rectangle_39" data-name="Rectangle 39" width="3.254" height="174.229" transform="translate(0)" fill="url(#linear-gradient-11)"/>
            </g>
            <path id="Path_775" data-name="Path 775" d="M363.133,395.081s.825-34.787-37.937-42.737C325.2,352.344,321.889,390.443,363.133,395.081Z" transform="translate(-320.966 -180.747)" fill="url(#linear-gradient-2)"/>
            <path id="Path_776" data-name="Path 776" d="M352.417,328.106s.594-24.976-27.239-30.684C325.179,297.422,322.806,324.776,352.417,328.106Z" transform="translate(-310.251 -210.498)" fill="url(#linear-gradient-2)"/>
            <path id="Path_777" data-name="Path 777" d="M311.328,354.31s-.461-19.484,21.249-23.936C332.577,330.374,334.429,351.713,311.328,354.31Z" transform="translate(-269.16 -192.648)" fill="url(#linear-gradient-2)"/>
            <g id="Group_276" data-name="Group 276" transform="translate(0 0)">
              <ellipse id="Ellipse_40" data-name="Ellipse 40" cx="35.371" cy="35.371" rx="35.371" ry="35.371" transform="translate(15.255 84.333) rotate(-102.453)" fill="url(#linear-gradient-5)"/>
              <g id="Group_275" data-name="Group 275" transform="translate(31.276 20.358)" opacity="0.2" style="mix-blend-mode: multiply;isolation: isolate">
                <g id="Group_274" data-name="Group 274" transform="translate(0)">
                  <path id="Path_778" data-name="Path 778" d="M326.607,294.87v-2.2a13.1,13.1,0,0,1-5.834-2.252,10.576,10.576,0,0,1-3.608-4.135,3.144,3.144,0,0,1-.344-1.408,3.313,3.313,0,0,1,.134-.85,2.574,2.574,0,0,1,1.246-1.378,2.4,2.4,0,0,1,1.167-.344,3.419,3.419,0,0,1,2.437,1.593,7.977,7.977,0,0,0,7.109,3.659,7.5,7.5,0,0,0,4.348-1.272,4.3,4.3,0,0,0,2.015-3.608,3.652,3.652,0,0,0-2.041-3.339,13.344,13.344,0,0,0-3.581-1.249l-.689-.185a18.56,18.56,0,0,1-8.06-3.21,8.015,8.015,0,0,1-3.288-6.6,9.071,9.071,0,0,1,2.653-6.39,11.437,11.437,0,0,1,6.336-3.21V256.5a2.245,2.245,0,0,1,.691-1.619,2.168,2.168,0,0,1,1.617-.638,2.088,2.088,0,0,1,1.539.638,2.314,2.314,0,0,1,.635,1.619v1.986a10.773,10.773,0,0,1,7.8,4.773,2.034,2.034,0,0,1,.291,1.008,4.8,4.8,0,0,1-.054.5,2.806,2.806,0,0,1-.715,1.246,2.506,2.506,0,0,1-1.725.637,2.445,2.445,0,0,1-1.563-.476,12.019,12.019,0,0,0-2.784-1.961,8.731,8.731,0,0,0-3.5-.64,7.14,7.14,0,0,0-4.138,1.195,3.83,3.83,0,0,0-1.776,3.261,3.485,3.485,0,0,0,2.308,3.236,22.887,22.887,0,0,0,5.384,1.563,17.977,17.977,0,0,1,6.839,3.051,7.951,7.951,0,0,1,3.076,6.5,9.763,9.763,0,0,1-2.678,6.734,11.83,11.83,0,0,1-6.76,3.5v2.254a2.194,2.194,0,0,1-2.2,2.252A2.241,2.241,0,0,1,326.607,294.87Z" transform="translate(-316.822 -254.245)" fill="#ff791f"/>
                </g>
              </g>
            </g>
          </g>
        </g>
        <g id="Group_283" data-name="Group 283" transform="translate(210.808 261.463)">
          <g id="Group_278" data-name="Group 278" transform="translate(4.08 47.134)">
            <rect id="Rectangle_40" data-name="Rectangle 40" width="63.748" height="11.784" fill="url(#linear-gradient-25)"/>
            <path id="Path_779" data-name="Path 779" d="M232.294,406.374h1.582V394.591h-1.582Zm-9.744-11.783h1.583v11.783h-1.583Zm-9.744,0h1.583v11.783h-1.583Zm-9.742,0h1.582v11.783h-1.582Zm-9.744,0H194.9v11.783h-1.582Zm-9.744,0h1.582v11.783h-1.582Z" transform="translate(-176.853 -394.59)" fill="#ffc563" opacity="0.2" style="mix-blend-mode: multiply;isolation: isolate"/>
          </g>
          <g id="Group_279" data-name="Group 279" transform="translate(8.161 35.35)">
            <rect id="Rectangle_41" data-name="Rectangle 41" width="63.748" height="11.784" transform="translate(0 0)" fill="url(#linear-gradient-25)"/>
            <path id="Path_780" data-name="Path 780" d="M229.647,398.732h1.582V386.947h-1.582ZM219.9,386.947h1.582v11.785H219.9Zm-9.744,0h1.582v11.785H210.16Zm-9.744,0H202v11.785h-1.583Zm-9.744,0h1.583v11.785h-1.583Zm-9.742,0h1.582v11.785h-1.582Z" transform="translate(-174.206 -386.947)" fill="#ffc563" opacity="0.2" style="mix-blend-mode: multiply;isolation: isolate"/>
          </g>
          <g id="Group_280" data-name="Group 280" transform="translate(2.498 23.567)">
            <rect id="Rectangle_42" data-name="Rectangle 42" width="63.748" height="11.783" transform="translate(0 0)" fill="url(#linear-gradient-25)"/>
            <path id="Path_781" data-name="Path 781" d="M233.319,391.087H234.9V379.3h-1.583ZM223.577,379.3h1.582v11.783h-1.582Zm-9.744,0h1.582v11.783h-1.582Zm-9.743,0h1.583v11.783H204.09Zm-9.744,0h1.583v11.783h-1.583Zm-9.742,0h1.582v11.783H184.6Z" transform="translate(-177.879 -379.304)" fill="#ffc563" opacity="0.2" style="mix-blend-mode: multiply;isolation: isolate"/>
          </g>
          <g id="Group_281" data-name="Group 281" transform="translate(0 11.783)">
            <rect id="Rectangle_43" data-name="Rectangle 43" width="63.748" height="11.784" fill="url(#linear-gradient-25)"/>
            <path id="Path_782" data-name="Path 782" d="M234.94,383.444h1.583V371.661H234.94ZM225.2,371.661h1.583v11.783H225.2Zm-9.742,0h1.582v11.783h-1.582Zm-9.744,0h1.582v11.783h-1.582Zm-9.744,0h1.583v11.783h-1.583Zm-9.744,0h1.583v11.783h-1.583Z" transform="translate(-179.5 -371.661)" fill="#ffc563" opacity="0.2" style="mix-blend-mode: multiply;isolation: isolate"/>
          </g>
          <g id="Group_282" data-name="Group 282" transform="translate(5.663)">
            <rect id="Rectangle_44" data-name="Rectangle 44" width="63.748" height="11.783" fill="url(#linear-gradient-25)"/>
            <path id="Path_783" data-name="Path 783" d="M231.267,375.8h1.583V364.018h-1.583Zm-9.742-11.783h1.582V375.8h-1.582Zm-9.744,0h1.582V375.8h-1.582Zm-9.744,0h1.582V375.8h-1.582Zm-9.744,0h1.583V375.8h-1.583Zm-9.744,0h1.583V375.8h-1.583Z" transform="translate(-175.827 -364.018)" fill="#ffc563" opacity="0.2" style="mix-blend-mode: multiply;isolation: isolate"/>
          </g>
        </g>
        <g id="Group_296" data-name="Group 296" transform="translate(253.021 179.354)">
          <g id="Group_284" data-name="Group 284" transform="translate(10.723 129.243)">
            <rect id="Rectangle_45" data-name="Rectangle 45" width="63.748" height="11.784" fill="url(#linear-gradient-25)"/>
            <path id="Path_784" data-name="Path 784" d="M200.605,406.374h1.582V394.591h-1.582Zm-9.744-11.783h1.583v11.783h-1.583Zm-9.743,0H182.7v11.783h-1.583Zm-9.742,0h1.582v11.783h-1.582Zm-9.744,0h1.582v11.783h-1.582Zm-9.744,0h1.583v11.783h-1.583Z" transform="translate(-145.165 -394.59)" fill="#ffc563" opacity="0.2" style="mix-blend-mode: multiply;isolation: isolate"/>
          </g>
          <g id="Group_285" data-name="Group 285" transform="translate(12.277 117.459)">
            <rect id="Rectangle_46" data-name="Rectangle 46" width="63.748" height="11.784" transform="translate(0 0)" fill="url(#linear-gradient-25)"/>
            <path id="Path_785" data-name="Path 785" d="M199.6,398.732h1.582V386.947H199.6Zm-9.744-11.785h1.582v11.785h-1.582Zm-9.744,0h1.583v11.785H180.11Zm-9.744,0h1.583v11.785h-1.583Zm-9.742,0h1.582v11.785h-1.582Zm-9.744,0h1.582v11.785h-1.582Z" transform="translate(-144.156 -386.947)" fill="#ffc563" opacity="0.2" style="mix-blend-mode: multiply;isolation: isolate"/>
          </g>
          <g id="Group_286" data-name="Group 286" transform="translate(16.517 93.893)">
            <rect id="Rectangle_47" data-name="Rectangle 47" width="63.748" height="11.784" fill="url(#linear-gradient-25)"/>
            <path id="Path_786" data-name="Path 786" d="M196.846,383.444h1.583V371.661h-1.583ZM187.1,371.661h1.582v11.783H187.1Zm-9.744,0h1.582v11.783h-1.582Zm-9.744,0H169.2v11.783h-1.582Zm-9.744,0h1.583v11.783h-1.583Zm-9.743,0h1.583v11.783H148.13Z" transform="translate(-141.406 -371.661)" fill="#ffc563" opacity="0.2" style="mix-blend-mode: multiply;isolation: isolate"/>
          </g>
          <g id="Group_287" data-name="Group 287" transform="translate(9.14 105.676)">
            <rect id="Rectangle_48" data-name="Rectangle 48" width="63.748" height="11.783" transform="translate(0 0)" fill="url(#linear-gradient-25)"/>
            <path id="Path_787" data-name="Path 787" d="M201.631,391.087h1.582V379.3h-1.582ZM191.888,379.3h1.582v11.783h-1.582Zm-9.744,0h1.582v11.783h-1.582Zm-9.744,0h1.583v11.783H172.4Zm-9.744,0h1.583v11.783h-1.583Zm-9.742,0H154.5v11.783h-1.582Z" transform="translate(-146.19 -379.304)" fill="#ffc563" opacity="0.2" style="mix-blend-mode: multiply;isolation: isolate"/>
          </g>
          <g id="Group_288" data-name="Group 288" transform="translate(0 35.351)">
            <rect id="Rectangle_49" data-name="Rectangle 49" width="63.748" height="11.783" fill="url(#linear-gradient-25)"/>
            <path id="Path_788" data-name="Path 788" d="M207.56,345.472h1.582V333.689H207.56Zm-9.744-11.783H199.4v11.783h-1.582Zm-9.744,0h1.583v11.783h-1.583Zm-9.742,0h1.582v11.783h-1.582Zm-9.744,0h1.582v11.783h-1.582Zm-9.744,0h1.582v11.783h-1.582Z" transform="translate(-152.119 -333.688)" fill="#ffc563" opacity="0.2" style="mix-blend-mode: multiply;isolation: isolate"/>
          </g>
          <g id="Group_289" data-name="Group 289" transform="translate(1.554 23.566)">
            <rect id="Rectangle_50" data-name="Rectangle 50" width="63.748" height="11.784" transform="translate(0 0.001)" fill="url(#linear-gradient-25)"/>
            <path id="Path_789" data-name="Path 789" d="M206.552,337.83h1.582V326.045h-1.582Zm-9.744-11.785h1.582V337.83h-1.582Zm-9.744,0h1.583V337.83h-1.583Zm-9.744,0H178.9V337.83h-1.583Zm-9.742,0h1.582V337.83h-1.582Zm-9.743,0h1.582V337.83h-1.582Z" transform="translate(-151.111 -326.045)" fill="#ffc563" opacity="0.2" style="mix-blend-mode: multiply;isolation: isolate"/>
          </g>
          <g id="Group_290" data-name="Group 290" transform="translate(5.851)">
            <rect id="Rectangle_51" data-name="Rectangle 51" width="63.748" height="11.784" transform="translate(0 0)" fill="url(#linear-gradient-25)"/>
            <path id="Path_790" data-name="Path 790" d="M203.764,322.542h1.583V310.759h-1.583Zm-9.744-11.783H195.6v11.783h-1.583Zm-9.742,0h1.582v11.783h-1.582Zm-9.744,0h1.582v11.783h-1.582Zm-9.744,0h1.582v11.783h-1.582Zm-9.744,0h1.583v11.783h-1.583Z" transform="translate(-148.324 -310.759)" fill="#ffc563" opacity="0.2" style="mix-blend-mode: multiply;isolation: isolate"/>
          </g>
          <g id="Group_291" data-name="Group 291" transform="translate(9.35 11.783)">
            <rect id="Rectangle_52" data-name="Rectangle 52" width="63.748" height="11.783" transform="translate(0 0)" fill="url(#linear-gradient-25)"/>
            <path id="Path_791" data-name="Path 791" d="M201.5,330.185h1.582V318.4H201.5ZM191.752,318.4h1.582v11.783h-1.582Zm-9.744,0h1.583v11.783h-1.583Zm-9.744,0h1.583v11.783h-1.583Zm-9.742,0H164.1v11.783h-1.582Zm-9.744,0h1.582v11.783h-1.582Z" transform="translate(-146.054 -318.402)" fill="#ffc563" opacity="0.2" style="mix-blend-mode: multiply;isolation: isolate"/>
          </g>
          <g id="Group_292" data-name="Group 292" transform="translate(22.18 82.109)">
            <rect id="Rectangle_53" data-name="Rectangle 53" width="63.748" height="11.783" fill="url(#linear-gradient-25)"/>
            <path id="Path_792" data-name="Path 792" d="M193.172,375.8h1.583V364.018h-1.583Zm-9.742-11.783h1.582V375.8H183.43Zm-9.744,0h1.582V375.8h-1.582Zm-9.744,0h1.583V375.8h-1.583Zm-9.744,0h1.583V375.8H154.2Zm-9.742,0h1.582V375.8h-1.582Z" transform="translate(-137.732 -364.018)" fill="#ffc563" opacity="0.2" style="mix-blend-mode: multiply;isolation: isolate"/>
          </g>
          <g id="Group_293" data-name="Group 293" transform="translate(9.14 70.326)">
            <rect id="Rectangle_54" data-name="Rectangle 54" width="63.748" height="11.784" fill="url(#linear-gradient-25)"/>
            <path id="Path_793" data-name="Path 793" d="M201.631,368.158h1.582V356.375h-1.582Zm-9.744-11.783h1.582v11.783h-1.582Zm-9.744,0h1.582v11.783h-1.582Zm-9.744,0h1.583v11.783H172.4Zm-9.744,0h1.583v11.783h-1.583Zm-9.742,0H154.5v11.783h-1.582Z" transform="translate(-146.19 -356.375)" fill="#ffc563" opacity="0.2" style="mix-blend-mode: multiply;isolation: isolate"/>
          </g>
          <g id="Group_294" data-name="Group 294" transform="translate(7.98 46.758)">
            <rect id="Rectangle_55" data-name="Rectangle 55" width="63.748" height="11.783" transform="translate(0 0.001)" fill="url(#linear-gradient-25)"/>
            <path id="Path_794" data-name="Path 794" d="M202.384,352.871h1.582V341.088h-1.582Zm-9.744-11.783h1.582v11.783h-1.582Zm-9.744,0h1.583v11.783H182.9Zm-9.744,0h1.583v11.783h-1.583Zm-9.742,0h1.582v11.783h-1.582Zm-9.744,0h1.582v11.783h-1.582Z" transform="translate(-146.943 -341.088)" fill="#ffc563" opacity="0.2" style="mix-blend-mode: multiply;isolation: isolate"/>
          </g>
          <g id="Group_295" data-name="Group 295" transform="translate(4.843 58.541)">
            <rect id="Rectangle_56" data-name="Rectangle 56" width="63.748" height="11.784" transform="translate(0 0.001)" fill="url(#linear-gradient-25)"/>
            <path id="Path_795" data-name="Path 795" d="M204.418,360.516H206V348.731h-1.582Zm-9.744-11.785h1.582v11.785h-1.582Zm-9.744,0h1.582v11.785h-1.582Zm-9.744,0h1.583v11.785h-1.583Zm-9.744,0h1.583v11.785h-1.583Zm-9.742,0h1.582v11.785H155.7Z" transform="translate(-148.977 -348.731)" fill="#ffc563" opacity="0.2" style="mix-blend-mode: multiply;isolation: isolate"/>
          </g>
        </g>
        <path id="Path_796" data-name="Path 796" d="M184.229,325.95l6.837,50.539-13.06,4.6,2.345-5.892-12.663-64.434H198.5l-12.734,3.721Z" transform="translate(97.909 -131.405)" fill="#ffc563" opacity="0.4" style="mix-blend-mode: multiply;isolation: isolate"/>
        <path id="Path_797" data-name="Path 797" d="M162.442,363.636v.589h13.04v11.783h-5.663v11.783h-7.377v11.783h3.136v11.785h-1.554v11.783h-8.35a33.194,33.194,0,0,1,6.768-59.507Z" transform="translate(163.467 -102.761)" fill="#ffc563" opacity="0.2" style="mix-blend-mode: multiply;isolation: isolate"/>
        <g id="Group_299" data-name="Group 299" transform="translate(298.176 240.122)">
          <circle id="Ellipse_41" data-name="Ellipse 41" cx="33.244" cy="33.244" r="33.244" transform="translate(47.014 94.029) rotate(-135)" fill="url(#linear-gradient-5)"/>
          <g id="Group_298" data-name="Group 298" transform="translate(36.786 26.538)" opacity="0.2" style="mix-blend-mode: multiply;isolation: isolate">
            <g id="Group_297" data-name="Group 297">
              <path id="Path_798" data-name="Path 798" d="M137.428,405.546V403.48a12.357,12.357,0,0,1-5.478-2.115,9.931,9.931,0,0,1-3.389-3.888,2.9,2.9,0,0,1-.325-1.318,3.074,3.074,0,0,1,.125-.8,2.424,2.424,0,0,1,1.172-1.295,2.231,2.231,0,0,1,1.095-.325,3.217,3.217,0,0,1,2.294,1.5,7.486,7.486,0,0,0,6.674,3.438,7.046,7.046,0,0,0,4.084-1.2,4.033,4.033,0,0,0,1.893-3.389,3.431,3.431,0,0,0-1.916-3.134,12.471,12.471,0,0,0-3.366-1.172l-.646-.177a17.375,17.375,0,0,1-7.57-3.011,7.526,7.526,0,0,1-3.09-6.2,8.526,8.526,0,0,1,2.488-6,10.731,10.731,0,0,1,5.954-3.014V369.5a2.119,2.119,0,0,1,.649-1.519,2.05,2.05,0,0,1,1.519-.6,1.959,1.959,0,0,1,1.443.6,2.161,2.161,0,0,1,.6,1.519v1.87a10.112,10.112,0,0,1,7.322,4.483,1.91,1.91,0,0,1,.274.945,4.243,4.243,0,0,1-.052.476,2.6,2.6,0,0,1-.672,1.167,2.35,2.35,0,0,1-1.617.6,2.31,2.31,0,0,1-1.469-.45,11.435,11.435,0,0,0-2.618-1.844,8.283,8.283,0,0,0-3.287-.6,6.668,6.668,0,0,0-3.887,1.122,3.6,3.6,0,0,0-1.667,3.063,3.274,3.274,0,0,0,2.165,3.037,21.455,21.455,0,0,0,5.058,1.469,16.908,16.908,0,0,1,6.426,2.863,7.478,7.478,0,0,1,2.891,6.105,9.174,9.174,0,0,1-2.516,6.327,11.109,11.109,0,0,1-6.35,3.287v2.115a2.061,2.061,0,0,1-2.07,2.12A2.107,2.107,0,0,1,137.428,405.546Z" transform="translate(-128.236 -367.389)" fill="#ff791f"/>
            </g>
          </g>
        </g>
        <g id="Group_300" data-name="Group 300" transform="translate(265.103 120.585)">
          <path id="Path_799" data-name="Path 799" d="M181.407,272.639S198,275.682,199.5,277.33s4.65,20.5,3.654,25.6l-7.473.1,2.828,13.431s-4.747,3.133-17,3.133a38.776,38.776,0,0,1-15.989-3.133l2.43-13.357-8.279-2.152s.64-20.118,1.969-22.786S181.407,272.639,181.407,272.639Z" transform="translate(-159.664 -272.639)" fill="url(#linear-gradient-43)"/>
        </g>
        <g id="Group_302" data-name="Group 302" transform="translate(277.915 93.604)">
          <g id="Group_301" data-name="Group 301" transform="translate(0)">
            <path id="Path_800" data-name="Path 800" d="M176.353,287.19a2.843,2.843,0,0,0,2.726-2.923c-.082-1.744.224-3.367,3.077-4.679,5.974-2.747,6.1-24.946-4.91-24.441s-9.654,15.466-9.4,19.583,3.93,4.984,4.912,6.43a6.652,6.652,0,0,1,.584,3.168,2.881,2.881,0,0,0,3.014,2.861Z" transform="translate(-167.657 -255.139)" fill="#e6e6e5"/>
          </g>
        </g>
        <g id="Group_304" data-name="Group 304" transform="translate(294.961 107.564)">
          <g id="Group_303" data-name="Group 303" transform="translate(0)">
            <path id="Path_801" data-name="Path 801" d="M165.884,266.746a2.139,2.139,0,1,0,1.99-2.55A2.3,2.3,0,0,0,165.884,266.746Z" transform="translate(-165.881 -264.193)" fill="#e6e6e5"/>
          </g>
        </g>
        <g id="Group_306" data-name="Group 306" transform="translate(275.111 106.665)">
          <g id="Group_305" data-name="Group 305" transform="translate(0)">
            <path id="Path_802" data-name="Path 802" d="M178.758,266.164a2.139,2.139,0,1,0,1.992-2.551A2.3,2.3,0,0,0,178.758,266.164Z" transform="translate(-178.755 -263.611)" fill="#e6e6e5"/>
          </g>
        </g>
        <g id="Group_309" data-name="Group 309" transform="translate(282.139 107.329)">
          <g id="Group_308" data-name="Group 308" transform="translate(0)">
            <g id="Group_307" data-name="Group 307">
              <path id="Path_803" data-name="Path 803" d="M177.86,265.247a1.089,1.089,0,1,0,1.112-1.067A1.088,1.088,0,0,0,177.86,265.247Zm-5.516-1.206a1.09,1.09,0,1,1-1.112,1.067A1.089,1.089,0,0,1,172.344,264.041Z" transform="translate(-171.232 -264.041)" fill="#2e2a6a"/>
            </g>
          </g>
        </g>
        <g id="Group_310" data-name="Group 310" transform="translate(288.447 103.851)">
          <path id="Path_804" data-name="Path 804" d="M173.786,263.153a.281.281,0,0,0,.2-.08.278.278,0,0,0,0-.393,3.1,3.1,0,0,0-3.181-.726.278.278,0,0,0,.185.524,2.567,2.567,0,0,1,2.6.593A.271.271,0,0,0,173.786,263.153Z" transform="translate(-170.616 -261.785)" fill="#2e2a6a"/>
        </g>
        <g id="Group_311" data-name="Group 311" transform="translate(281.842 103.841)">
          <path id="Path_805" data-name="Path 805" d="M175.037,262.8a.28.28,0,0,0,.145-.042,2.993,2.993,0,0,1,2.841-.122.278.278,0,1,0,.248-.5,3.549,3.549,0,0,0-3.381.145.278.278,0,0,0,.146.515Z" transform="translate(-174.758 -261.779)" fill="#2e2a6a"/>
        </g>
        <g id="Group_312" data-name="Group 312" transform="translate(285.142 107.696)">
          <path id="Path_806" data-name="Path 806" d="M174.976,269.015a.663.663,0,0,0,.419-.145.277.277,0,1,0-.344-.435.16.16,0,0,1-.137.015.4.4,0,0,1-.25-.219,1.442,1.442,0,0,1,.051-.834l.7-2.774a.277.277,0,1,0-.538-.136l-.7,2.773a1.91,1.91,0,0,0-.029,1.173.956.956,0,0,0,.623.552A.8.8,0,0,0,174.976,269.015Z" transform="translate(-174.064 -264.279)" fill="#2e2a6a"/>
        </g>
        <g id="Group_313" data-name="Group 313" transform="translate(282.99 112.496)">
          <path id="Path_807" data-name="Path 807" d="M175.182,269.348c.117,0,.236,0,.353-.014a4.757,4.757,0,0,0,3.071-1.475.278.278,0,0,0-.405-.379,4.159,4.159,0,0,1-5.587.435.277.277,0,1,0-.341.438A4.771,4.771,0,0,0,175.182,269.348Z" transform="translate(-172.165 -267.392)" fill="#2e2a6a"/>
        </g>
        <g id="Group_314" data-name="Group 314" transform="translate(277.609 107.864)">
          <path id="Path_808" data-name="Path 808" d="M179.832,266.79h.014a.278.278,0,0,0,.264-.291l-.092-1.847a.286.286,0,0,0-.291-.264.277.277,0,0,0-.264.291l.092,1.847A.279.279,0,0,0,179.832,266.79Z" transform="translate(-179.462 -264.388)" fill="#2e2a6a"/>
        </g>
        <g id="Group_315" data-name="Group 315" transform="translate(295.748 109.313)">
          <path id="Path_809" data-name="Path 809" d="M167.676,267.232a.278.278,0,0,0,.257-.173l.552-1.347a.278.278,0,1,0-.515-.211l-.552,1.349a.277.277,0,0,0,.257.382Z" transform="translate(-167.397 -265.328)" fill="#2e2a6a"/>
        </g>
        <path id="Path_810" data-name="Path 810" d="M162.5,279.435s11.14,14.364,10.337,19.819-7.312,4.7-9.044.937-4.033-16.74-4.033-16.74Z" transform="translate(135.75 -148.373)" fill="url(#linear-gradient-44)"/>
        <path id="Path_811" data-name="Path 811" d="M189.9,279.047s-11.142,14.364-10.339,19.819,7.312,4.7,9.044.937,4.033-16.74,4.033-16.74Z" transform="translate(85.524 -148.583)" fill="url(#linear-gradient-45)"/>
        <g id="Group_322" data-name="Group 322" transform="translate(235.436 145.505)">
          <g id="Group_318" data-name="Group 318" transform="translate(0)">
            <path id="Path_812" data-name="Path 812" d="M230.647,292.19h0a7.771,7.771,0,0,1-2.2,10.915l-53.793,34.738-13.138-8.894,7.426-1.145,50.884-37.63A7.771,7.771,0,0,1,230.647,292.19Z" transform="translate(-161.516 -288.803)" fill="#250e73"/>
          </g>
          <g id="Group_319" data-name="Group 319" transform="translate(27.538 6.109)">
            <path id="Path_813" data-name="Path 813" d="M202.886,292.766l2.254,17.1a9.434,9.434,0,0,1-9.353,10.667H180.172l-4.4,10.235,6.045,50.259-16.109,5.209,2.925-5.612L160.121,326.4l19.64-23.34Z" transform="translate(-160.121 -292.766)" fill="#250e73"/>
          </g>
          <g id="Group_320" data-name="Group 320" transform="translate(24.849 12.782)">
            <path id="Path_814" data-name="Path 814" d="M164.258,325.589a.281.281,0,0,0,.16-.049l41.281-27.92a.288.288,0,0,0-.322-.476L164.1,325.063a.287.287,0,0,0,.162.526Z" transform="translate(-163.97 -297.094)" fill="#353178"/>
          </g>
          <g id="Group_321" data-name="Group 321" transform="translate(50.145 22.181)">
            <path id="Path_815" data-name="Path 815" d="M173.271,309.378a.289.289,0,0,0,.27-.188l2.089-5.612a.288.288,0,0,0-.54-.2L173,308.989a.289.289,0,0,0,.27.389Z" transform="translate(-172.983 -303.191)" fill="#353178"/>
          </g>
        </g>
        <path id="Path_816" data-name="Path 816" d="M185.854,269.792a2.213,2.213,0,0,0-1.77,1.943l-.685-.2.459-4.452a4.344,4.344,0,0,1-2.673-4.705s-16.624.991-16.142-4.765,17.238-4.493,20.312,1.1c0,0,2.983-.176,3.84,1.529C190.4,262.649,185.854,269.792,185.854,269.792Z" transform="translate(111.101 -162.225)" fill="#555993"/>
        <path id="Path_817" data-name="Path 817" d="M181.586,257.906s.3,6.409-1.708,7.616l-.035,4.369-.752-.162s.1-1.886-1.452-1.89c0,0-.077-11.584,1.15-11.987S181.586,257.906,181.586,257.906Z" transform="translate(99.469 -161.172)" fill="#555993"/>
        <g id="Group_323" data-name="Group 323" transform="translate(277.821 117.502)">
          <path id="Path_818" data-name="Path 818" d="M186.2,272.98l-1.557,17.176a1.872,1.872,0,0,1-1.893,1.7l-12.244-.19a1.873,1.873,0,0,1-1.841-1.781l-.849-17.284a1.873,1.873,0,0,1,1.909-1.966l14.648.3A1.874,1.874,0,0,1,186.2,272.98Z" transform="translate(-167.813 -270.64)" fill="url(#linear-gradient-46)"/>
        </g>
        <g id="Group_325" data-name="Group 325" transform="translate(292.932 126.503)">
          <g id="Group_324" data-name="Group 324" transform="translate(0)">
            <path id="Path_819" data-name="Path 819" d="M168.328,276.524a1.023,1.023,0,0,1,.594,0,7.309,7.309,0,0,1,1.7.76c.527.27,1.622.774,1.647,1.488.043,1.175-1,1.943-1.292,2.268s.327,1.8-.6,2.84-.757,2.417-1.662,3.14-2.558-.342-2.977-.626.9-2.525.9-2.525-.94-.836-.853-1.257,1.045-2.442,1.045-2.442a7.749,7.749,0,0,1-.561-1.878,4.841,4.841,0,0,1,.538-1.048l1,.3a8.167,8.167,0,0,1,.335-.887A.49.49,0,0,1,168.328,276.524Z" transform="translate(-165.654 -276.478)" fill="#e6e6e5"/>
          </g>
        </g>
        <g id="Group_327" data-name="Group 327" transform="translate(274.147 126.216)">
          <g id="Group_326" data-name="Group 326" transform="translate(0)">
            <path id="Path_820" data-name="Path 820" d="M182.1,276.338a.331.331,0,0,0-.256-.036,10.643,10.643,0,0,0-1.488.552c-.661.267-2.262.8-2.33,1.687a3.243,3.243,0,0,0,1.2,2.319c.281.338-.4,1.781.481,2.863s.658,2.445,1.534,3.205,2.568-.237,3-.5-.8-2.561-.8-2.561.976-.8.9-1.221-.945-2.482-.945-2.482a7.741,7.741,0,0,0,.638-1.853,4.866,4.866,0,0,0-.495-1.07l-1.013.259C182.506,277.5,182.476,276.559,182.1,276.338Z" transform="translate(-178.024 -276.292)" fill="#e6e6e5"/>
          </g>
        </g>
        <g id="Group_328" data-name="Group 328" transform="translate(300.115 133.888)">
          <path id="Path_821" data-name="Path 821" d="M167.484,292.763a.377.377,0,0,0,.188-.049.386.386,0,0,0,.15-.524c-1.887-3.389-6.555-10.67-6.6-10.743a.385.385,0,0,0-.649.415c.046.074,4.7,7.335,6.577,10.7A.383.383,0,0,0,167.484,292.763Z" transform="translate(-160.51 -281.268)" fill="#353178" opacity="0.5"/>
        </g>
        <path id="Path_822" data-name="Path 822" d="M168.359,292.759a.146.146,0,0,0,.1-.057.768.768,0,0,0,.079-.61l-1.732-6.43c-.057-.218-.185-.287-.288-.168a.767.767,0,0,0-.079.609l1.733,6.431C168.214,292.679,168.285,292.759,168.359,292.759Z" transform="translate(129.801 -146.118)" fill="#353178" opacity="0.5"/>
        <path id="Path_823" data-name="Path 823" d="M180.211,297.341a.388.388,0,0,0,.375-.29l3.179-12.264a.386.386,0,0,0-.748-.193l-3.179,12.264a.386.386,0,0,0,.278.47A.418.418,0,0,0,180.211,297.341Z" transform="translate(93.92 -145.734)" fill="#353178" opacity="0.5"/>
        <g id="Group_331" data-name="Group 331" transform="matrix(0.998, 0.07, -0.07, 0.998, 267.194, 132.079)">
          <path id="Path_824" data-name="Path 824" d="M.386,11.266a.383.383,0,0,0,.338-.2L6.431.569A.385.385,0,1,0,5.754.2L.047,10.7A.386.386,0,0,0,.2,11.22.4.4,0,0,0,.386,11.266Z" transform="translate(0 0)" fill="#353178" opacity="0.5"/>
        </g>
        <path id="Path_834" data-name="Path 834" d="M191.042,246.1v-1.474h43.6V246.1h-1.8v24.53h1.8v1.474H213.383v14.9h4.477v1.079H207.828v-1.079H212.3v-14.9H191.042v-1.474h1.8V246.1Zm33.324,3.862h-2.42a.261.261,0,1,0,0,.523h2.42a.261.261,0,0,0,0-.523Zm-2.683,1.568a.261.261,0,0,0,.262.261h.961a.261.261,0,0,0,0-.523h-.961A.262.262,0,0,0,221.683,251.532Zm3.745-1.358a.275.275,0,0,0-.012-.048.344.344,0,0,0-.026-.046c-.008-.014-.022-.026-.031-.04a.277.277,0,0,0-.372,0l-.031.04a.223.223,0,0,0-.025.046.191.191,0,0,0-.015.048c0,.017,0,.034,0,.052a.257.257,0,0,0,.075.182.26.26,0,0,0,.185.079.267.267,0,0,0,.187-.079.25.25,0,0,0,.076-.182A.149.149,0,0,0,225.428,250.174Zm2.533-.21h-2.02a.261.261,0,0,0,0,.523h2.02a.261.261,0,1,0,0-.523Zm0,1.306h-4.172a.261.261,0,0,0,0,.523h4.172a.261.261,0,1,0,0-.523Zm-30.678,15.1h30.94v-.842h-2.881v-5.683H221.76v5.683h-3.617v-8.248h-3.581v8.248h-3.618v-7.086h-3.581v7.086h-3.617V252.144h-3.581v13.383h-2.881Z" transform="translate(25.758 -167.228)" fill="#fff1d1"/>
        <path id="Path_835" data-name="Path 835" d="M138.57,286.1a12.476,12.476,0,1,0,12.475,12.475A12.476,12.476,0,0,0,138.57,286.1Zm2.9,17.082a4.176,4.176,0,0,1-2.383,1.236v.794a.774.774,0,0,1-.777.8.79.79,0,0,1-.8-.8v-.777a4.612,4.612,0,0,1-2.058-.794,3.721,3.721,0,0,1-1.272-1.458,1.1,1.1,0,0,1-.122-.5,1.117,1.117,0,0,1,.048-.3.9.9,0,0,1,.439-.487.847.847,0,0,1,.41-.12,1.2,1.2,0,0,1,.86.561,2.816,2.816,0,0,0,2.508,1.29,2.646,2.646,0,0,0,1.532-.449,1.517,1.517,0,0,0,.711-1.272,1.292,1.292,0,0,0-.72-1.179,4.717,4.717,0,0,0-1.263-.439l-.244-.066a6.546,6.546,0,0,1-2.843-1.132,2.825,2.825,0,0,1-1.159-2.328,3.2,3.2,0,0,1,.936-2.254,4.028,4.028,0,0,1,2.235-1.133v-.7a.789.789,0,0,1,.242-.57.765.765,0,0,1,.572-.225.73.73,0,0,1,.541.225.811.811,0,0,1,.225.57v.7a3.8,3.8,0,0,1,2.749,1.684.7.7,0,0,1,.1.356,1.715,1.715,0,0,1-.019.179,1.008,1.008,0,0,1-.253.439.88.88,0,0,1-.607.223.86.86,0,0,1-.552-.168,4.3,4.3,0,0,0-.982-.692,3.1,3.1,0,0,0-1.235-.225,2.511,2.511,0,0,0-1.458.422,1.352,1.352,0,0,0-.627,1.15,1.23,1.23,0,0,0,.814,1.141,8.127,8.127,0,0,0,1.9.55,6.373,6.373,0,0,1,2.413,1.078,2.8,2.8,0,0,1,1.084,2.291A3.433,3.433,0,0,1,141.465,303.181Z" transform="translate(209.49 -144.763)" fill="#fff1d1"/>
        <g id="Group_340" data-name="Group 340" transform="translate(309.005 38.847)">
          <path id="Path_836" data-name="Path 836" d="M185.071,209.476h-60.3a4.694,4.694,0,0,0-4.693,4.694v31.556a4.693,4.693,0,0,0,4.693,4.693h60.3a4.693,4.693,0,0,0,4.693-4.693V214.17A4.694,4.694,0,0,0,185.071,209.476Z" transform="translate(-120.081 -209.476)" fill="url(#linear-gradient-47)"/>
          <g id="Group_339" data-name="Group 339" transform="translate(8.997 8.848)">
            <g id="Group_338" data-name="Group 338" transform="translate(0)">
              <path id="Rectangle_57" data-name="Rectangle 57" d="M1.023,0H50.666a1.022,1.022,0,0,1,1.022,1.022V2.376A1.022,1.022,0,0,1,50.666,3.4H1.022A1.022,1.022,0,0,1,0,2.376V1.023A1.023,1.023,0,0,1,1.023,0Z" transform="translate(0)" fill="#fffeff"/>
              <path id="Rectangle_58" data-name="Rectangle 58" d="M1.022,0H20.157a1.022,1.022,0,0,1,1.022,1.022V2.376A1.023,1.023,0,0,1,20.157,3.4H1.022A1.022,1.022,0,0,1,0,2.376V1.022A1.022,1.022,0,0,1,1.022,0Z" transform="translate(0 8.481)" fill="#fffeff"/>
              <path id="Path_840" data-name="Path 840" d="M148.434,224.115h-4.852a1.7,1.7,0,0,1-1.7-1.7h0a1.7,1.7,0,0,1,1.7-1.7h4.852a1.7,1.7,0,0,1,1.7,1.7h0A1.7,1.7,0,0,1,148.434,224.115Z" transform="translate(-117.268 -212.235)" fill="#fffeff"/>
              <path id="Path_841" data-name="Path 841" d="M132.468,229.616h-4.852a1.7,1.7,0,0,1-1.7-1.7h0a1.7,1.7,0,0,1,1.7-1.7h4.852a1.7,1.7,0,0,1,1.7,1.7h0A1.7,1.7,0,0,1,132.468,229.616Z" transform="translate(-125.917 -209.255)" fill="#fffeff"/>
            </g>
          </g>
        </g>
        <g id="Group_360" data-name="Group 360" transform="translate(0)">
          <g id="Group_341" data-name="Group 341" transform="translate(354.196 5.448)">
            <path id="Path_842" data-name="Path 842" d="M126.355,204.4a4.9,4.9,0,1,0-4.9-4.9A4.9,4.9,0,0,0,126.355,204.4Zm0-8.25A3.354,3.354,0,1,1,123,199.5,3.358,3.358,0,0,1,126.355,196.146Z" transform="translate(-121.459 -194.604)" fill="#ffdc8a"/>
          </g>
          <g id="Group_342" data-name="Group 342" transform="translate(174.971)">
            <path id="Path_843" data-name="Path 843" d="M252.422,175.227a4.9,4.9,0,1,0-4.895-4.895A4.9,4.9,0,0,0,252.422,175.227Zm0-8.25a3.354,3.354,0,1,1-3.353,3.355A3.358,3.358,0,0,1,252.422,166.978Z" transform="translate(-247.527 -165.436)" fill="#ffdc8a"/>
          </g>
          <g id="Group_343" data-name="Group 343" transform="translate(376.297 243.631)">
            <path id="Path_844" data-name="Path 844" d="M114.415,362.242a4.9,4.9,0,1,0-4.9-4.9A4.9,4.9,0,0,0,114.415,362.242Zm0-8.25a3.354,3.354,0,1,1-3.355,3.353A3.358,3.358,0,0,1,114.415,353.993Z" transform="translate(-109.519 -352.451)" fill="#ffdc8a"/>
          </g>
          <g id="Group_344" data-name="Group 344" transform="translate(232.301 209.89)">
            <path id="Path_845" data-name="Path 845" d="M206.188,327.342a4.895,4.895,0,1,0-4.9-4.895A4.9,4.9,0,0,0,206.188,327.342Zm0-8.248a3.353,3.353,0,1,1-3.355,3.353A3.358,3.358,0,0,1,206.188,319.094Z" transform="translate(-201.292 -317.552)" fill="#ffdc8a"/>
          </g>
          <g id="Group_347" data-name="Group 347" transform="translate(162.144 0.92)">
            <g id="Group_345" data-name="Group 345" transform="translate(3.319)">
              <path id="Path_846" data-name="Path 846" d="M259.816,174.213a.77.77,0,0,0,.771-.771V166.8a.771.771,0,0,0-1.542,0v6.639A.77.77,0,0,0,259.816,174.213Z" transform="translate(-259.045 -166.033)" fill="#ffdc8a"/>
            </g>
            <g id="Group_346" data-name="Group 346" transform="translate(0 3.319)">
              <path id="Path_847" data-name="Path 847" d="M257.663,169.728H264.3a.771.771,0,0,0,0-1.542h-6.639a.771.771,0,0,0,0,1.542Z" transform="translate(-256.892 -168.186)" fill="#ffdc8a"/>
            </g>
          </g>
          <g id="Group_350" data-name="Group 350" transform="translate(377.586 258.844)">
            <g id="Group_348" data-name="Group 348" transform="translate(3.321 0)">
              <path id="Path_848" data-name="Path 848" d="M112.651,370.5a.771.771,0,0,0,.771-.771v-6.64a.771.771,0,1,0-1.542,0v6.64A.77.77,0,0,0,112.651,370.5Z" transform="translate(-111.88 -362.319)" fill="#ffdc8a"/>
            </g>
            <g id="Group_349" data-name="Group 349" transform="translate(0 3.321)">
              <path id="Path_849" data-name="Path 849" d="M110.5,366.015h6.64a.771.771,0,1,0,0-1.542H110.5a.771.771,0,1,0,0,1.542Z" transform="translate(-109.727 -364.473)" fill="#ffdc8a"/>
            </g>
          </g>
          <g id="Group_353" data-name="Group 353" transform="translate(81.479 64.712)">
            <g id="Group_351" data-name="Group 351" transform="translate(3.319)">
              <path id="Path_850" data-name="Path 850" d="M304.717,244.58a.77.77,0,0,0,.771-.771v-6.64a.771.771,0,1,0-1.542,0v6.64A.771.771,0,0,0,304.717,244.58Z" transform="translate(-303.946 -236.398)" fill="#ffdc8a"/>
            </g>
            <g id="Group_352" data-name="Group 352" transform="translate(0 3.319)">
              <path id="Path_851" data-name="Path 851" d="M302.563,240.093h6.64a.771.771,0,1,0,0-1.542h-6.64a.771.771,0,1,0,0,1.542Z" transform="translate(-301.792 -238.551)" fill="#ffdc8a"/>
            </g>
          </g>
          <g id="Group_356" data-name="Group 356" transform="translate(0 251.237)">
            <g id="Group_354" data-name="Group 354" transform="translate(3.321)">
              <path id="Path_852" data-name="Path 852" d="M357.566,365.565a.77.77,0,0,0,.771-.771v-6.639a.771.771,0,0,0-1.542,0v6.639A.769.769,0,0,0,357.566,365.565Z" transform="translate(-356.795 -357.385)" fill="#ffdc8a"/>
            </g>
            <g id="Group_355" data-name="Group 355" transform="translate(0 3.319)">
              <path id="Path_853" data-name="Path 853" d="M355.413,361.08h6.64a.771.771,0,0,0,0-1.542h-6.64a.771.771,0,1,0,0,1.542Z" transform="translate(-354.642 -359.538)" fill="#ffdc8a"/>
            </g>
          </g>
          <g id="Group_359" data-name="Group 359" transform="translate(41.974 18.179)">
            <g id="Group_357" data-name="Group 357" transform="translate(3.321)">
              <path id="Path_854" data-name="Path 854" d="M330.34,188.045a.77.77,0,0,0,.771-.771v-6.639a.771.771,0,0,0-1.542,0v6.639A.769.769,0,0,0,330.34,188.045Z" transform="translate(-329.569 -179.865)" fill="#ffdc8a"/>
            </g>
            <g id="Group_358" data-name="Group 358" transform="translate(0 3.319)">
              <path id="Path_855" data-name="Path 855" d="M328.187,183.56h6.64a.771.771,0,0,0,0-1.542h-6.64a.771.771,0,0,0,0,1.542Z" transform="translate(-327.416 -182.018)" fill="#ffdc8a"/>
            </g>
          </g>
        </g>
      </g>
    </g>
  </g>
</svg>
