<?xml version="1.0" encoding="UTF-8"?>
<svg width="38px" height="38px" viewBox="0 0 38 38" version="1.1" xmlns="http://www.w3.org/2000/svg" xmlns:xlink="http://www.w3.org/1999/xlink">
    <title>Children</title>
    <defs>
        <circle id="path-1" cx="18" cy="18" r="18"></circle>
    </defs>
    <g id="Page-1" stroke="none" stroke-width="1" fill="none" fill-rule="evenodd">
        <g id="A08" transform="translate(-282.000000, -288.000000)">
            <g id="Children" transform="translate(283.000000, 289.000000)">
                <mask id="mask-2" fill="white">
                    <use xlink:href="#path-1"></use>
                </mask>
                <use id="Mask" stroke="#747474" fill="#F7F7F7" xlink:href="#path-1"></use>
                <path d="M24.5566524,12 C25.4161503,12 27.1298665,12.4401555 27.5812613,12.5604367 C29.190972,12.132887 31.0387869,12.9191792 31.1185069,12.9533201 C31.3101517,13.0363089 31.4041263,13.2521846 31.3339093,13.4475759 C31.3138473,13.5027266 31.2826985,13.5510492 31.2436304,13.5904426 C32.3839961,14.0195679 33.5444238,14.807961 34.3352886,16.2329514 C35.6694109,18.6380493 34.8109689,21.2306598 33.9852596,22.8316073 C33.9852596,22.837385 33.9889553,22.8431627 33.9884273,22.8489404 C33.9630858,24.0102576 33.7439878,24.71146 33.3184624,24.9914157 C33.2551088,25.0329101 33.1912272,25.0633743 33.1284015,25.0833336 C32.723994,26.4342644 32.1289977,27.6980044 30.9331974,28.4979529 C30.8835705,28.9701484 30.9828245,29.3803649 31.1258982,29.7002393 C39.6052565,31.7539482 40.937795,37.28373 40.9905897,37.5200904 C41.0164591,37.6372201 40.9884779,37.759077 40.9129815,37.8520454 C40.838013,37.945539 40.7245044,37.9996393 40.6041324,37.9996393 L40.6041324,37.9996393 L24.1482525,37.9990803 C23.7017986,37.9969584 23.0721452,37.9866218 22.8162837,37.9356777 C22.7562495,37.9779411 22.6822754,38 22.6058504,38 L22.6058504,38 L-2.60651622,38 C-2.7220729,38 -2.83185175,37.9490498 -2.90696359,37.8608061 C-2.98155018,37.7725624 -3.01359089,37.6554295 -2.99468162,37.5414481 C-2.96999451,37.3885974 -2.3438874,33.8126277 0.361714695,31.3465321 C0.34385594,30.9357788 0.299209039,30.4677722 0.242481211,29.9109966 C0.156864217,29.0606008 0.0497116601,28.0032525 0.0150446533,26.7289718 C-0.0921079038,22.8310177 2.06039791,21.5861516 2.78682922,21.2772987 C2.74323283,20.9237988 2.80416272,20.6286027 2.97224516,20.3985388 C3.09620597,20.2294051 3.24853068,20.1332825 3.38824921,20.0765545 C3.22279306,18.4865926 3.46020951,16.5525854 4.40042071,14.9957149 C5.32855095,13.4588043 7.2835599,11.7007592 11.3359225,12.0432287 C11.3611349,12.0453297 11.3863473,12.0500571 11.4110344,12.0568854 C13.9559077,12.7864715 15.6503888,14.0801868 16.4461541,15.9038894 C17.0754128,17.3441522 17.0297154,18.8521735 16.802804,20.0602714 C17.0034525,20.1553435 17.2356164,20.3097699 17.3853148,20.5555915 C17.5260838,20.7867059 17.5618014,21.0582653 17.5024472,21.3434815 C18.3349806,21.7458306 20.2306355,23.0663342 20.1303112,26.7289718 C20.0956442,28.0032525 19.9884916,29.0606008 19.9023494,29.9109966 C19.8498236,30.4294282 19.805702,30.8753739 19.785217,31.2661673 C19.8590718,31.3322387 19.931261,31.3991594 20.0018212,31.4668399 C20,31.0722381 23.1609082,29.8641176 24.8955944,29.4286875 C24.9621158,28.98433 24.8966503,28.5767397 24.8776442,28.4753673 C23.4991743,27.4285536 22.9115692,25.7493446 22.7257318,25.0765055 C22.6116953,25.043415 22.504522,24.985638 22.4068518,24.904225 C21.8440602,24.4367567 21.7727873,23.280692 21.7643402,23.0532608 L21.7643402,23.0532608 L21.766452,23.0375034 C20.8472961,21.4144956 20.4972671,19.8392852 20.7364272,18.3391848 C20.9423265,17.0497077 21.5420744,16.0632972 22.0948351,15.3962357 L22.0948351,15.3962357 L21.9665439,15.4256494 C21.8107995,15.4608409 21.6487198,15.3999124 21.556329,15.2707021 C21.4634103,15.1414918 21.4576029,14.9692113 21.5415465,14.8342233 C22.2178468,13.7480161 23.7087693,13.218569 24.6717448,12.9806329 L24.6717448,12.9806329 L24.3143246,12.7054044 C24.1802261,12.6024563 24.1269034,12.4264991 24.18181,12.2668246 C24.2367165,12.10715 24.3871813,12 24.5566524,12 Z M13.7064103,29.9362091 C12.7052692,31.006689 11.5838441,31.5655655 10.3689232,31.5865759 C10.3452866,31.5871012 10.3211248,31.5871012 10.2974882,31.5871012 C8.44753077,31.5871012 6.98258722,30.3543161 6.53874453,29.9362091 C6.40795536,29.9456638 6.28399456,29.9577448 6.15793277,29.9693005 C6.18524615,30.9011117 5.95360751,31.8197914 5.47037049,32.6265906 C4.47133048,34.2948163 2.92759826,34.6987411 1.66750519,34.6987411 C0.498806941,34.6987411 -0.425121244,34.3515443 -0.444030522,34.3447159 C-0.578496477,34.2921899 -0.674093365,34.1708549 -0.692477385,34.0279842 C-0.711386663,33.8845882 -0.649931517,33.742768 -0.533324317,33.6582012 C-0.0952594469,33.3404189 0.142157005,32.9932221 0.264016774,32.5614584 C-1.24399791,34.2611996 -1.89164058,36.3133903 -2.11645084,37.2121101 L-2.11645084,37.2121101 L22.1425732,37.2121101 C21.9650361,36.3060367 21.404061,34.1640265 19.85245,32.4380223 C19.9611783,32.9280898 20.2001705,33.3110043 20.6781549,33.6582012 C20.7952874,33.742768 20.8562173,33.8845882 20.8378333,34.0279842 C20.8194493,34.1708549 20.7238524,34.2921899 20.5893864,34.3447159 C20.5699519,34.3515443 19.6460237,34.6987411 18.4778507,34.6987411 C17.2177576,34.6987411 15.6735001,34.2948163 14.6744601,32.6265906 C14.1901726,31.817165 13.9590592,30.8948086 13.9879484,29.9598458 C13.8944525,29.9519669 13.8025324,29.9430375 13.7064103,29.9362091 Z M24.4521189,30.3620483 C23.2159079,30.7161899 22.1523249,31.1526067 21.2399508,31.6285669 C20.9065052,31.8025162 20.7711496,32.0326535 20.7700746,32.308846 C21.702817,33.467124 22.2533707,34.7284543 22.5740691,35.7256145 L22.605153,35.7949606 C22.9444798,36.5390229 23.2797553,37.2117714 24.0557401,37.2117714 L24.0557401,37.2117714 L40.059819,37.2117714 C39.8549755,36.6812737 39.4188912,35.7678722 38.5715361,34.7678053 C37.4464809,33.4394601 35.3579221,31.7040498 31.6976649,30.6651148 C31.6992487,30.6798216 31.706112,30.693478 31.7055841,30.7087101 C31.7029444,30.8153349 31.656485,30.9172325 31.576765,30.9897163 C30.2632326,32.1799221 28.9718739,32.7808026 27.7311983,32.7808026 C27.564895,32.7808026 27.3996475,32.7702977 27.235456,32.7487626 C25.5396899,32.5263213 24.5546066,31.221685 24.3696699,30.9556234 L24.3391382,30.9104043 C24.2335488,30.7460025 24.2646977,30.5290763 24.4130508,30.4009164 C24.4273054,30.3888358 24.4383923,30.3746541 24.4521189,30.3620483 Z M17.2671318,22.1066842 C17.03917,22.7333193 16.7166618,23.4009247 16.3032841,23.7370911 C16.3326985,24.864299 15.6545909,26.9632378 15.0510698,28.5873416 C14.9386647,28.8888408 14.8614518,29.1966431 14.8173302,29.5049707 C14.8288859,29.5496178 14.8351889,29.5968912 14.8299363,29.6457404 C14.825209,29.6888117 14.8110271,29.7282062 14.7936936,29.7654997 C14.7227838,30.6258755 14.9071492,31.4815239 15.3504667,32.2221405 C16.5223165,34.1792591 18.6012862,34.0279842 19.6570541,33.7947688 C18.8145408,32.8345936 18.9358753,31.6359503 19.118665,29.8316824 C19.2032315,28.994418 19.3088083,27.9528275 19.34295,26.7074361 C19.4269912,23.6346654 17.968876,22.4827704 17.2671318,22.1066842 Z M2.98432609,22.0515319 C2.33720868,22.3635364 0.713637314,23.4718348 0.802405857,26.7074361 C0.836547606,27.9528275 0.94159913,28.994418 1.02669087,29.8316824 C1.20948053,31.6359503 1.33028978,32.8345936 0.487776531,33.7947688 C1.54249387,34.0264084 3.62251412,34.1792591 4.79436389,32.2221405 C5.25554012,31.4521094 5.43780453,30.5586422 5.34325817,29.6641245 C5.3427329,29.6614981 5.34115711,29.6599224 5.34063184,29.6572961 C5.34063184,29.6536193 5.34168237,29.650993 5.34168237,29.6478414 C5.3028133,29.2917152 5.22349942,28.9355889 5.09428605,28.5873416 C4.49496707,26.9753187 3.82316253,24.8958146 3.84154653,23.7628288 C3.43132034,23.480239 3.22279306,22.8441492 2.98432609,22.0515319 Z M30.1254384,28.9239268 C29.4422749,29.2017815 28.6133979,29.3656581 27.583901,29.3656581 C26.8648371,29.3656581 26.2503067,29.213337 25.7170801,28.9732998 C25.7234154,29.4822625 25.6326086,30.1755862 25.1923007,30.7260432 C25.518572,31.108947 26.2645613,31.8295835 27.3473808,31.9687735 C28.4133059,32.1053372 29.5589511,31.6630807 30.7626705,30.6525089 C30.7014287,30.5674192 30.6343794,30.4613196 30.5678581,30.3462909 C30.4606848,30.2732818 30.4004988,30.1519502 30.4010268,30.0206389 C30.2637605,29.7133704 30.1523637,29.344123 30.1254384,28.9239268 Z M12.4274079,28.0237377 C11.7970988,28.3252369 11.0381015,28.5169568 10.1183753,28.5169568 C9.25222548,28.5169568 8.52842051,28.3388936 7.91281852,28.0605058 C7.91544484,28.5574017 7.77887782,29.1414908 7.31612586,29.570103 C7.8681716,30.0276044 9.00377862,30.8097165 10.3599939,30.798686 C11.2776189,30.7813524 12.1448193,30.378478 12.9421604,29.598467 C12.6648244,29.2806847 12.4930652,28.7517479 12.4274079,28.0237377 Z M4.62365518,23.9445688 C4.66620104,24.7708027 5.09271025,26.3213701 5.83279824,28.3126306 C5.93942556,28.5999478 6.01243638,28.8930429 6.0670632,29.1866632 C6.22779201,29.1714306 6.38641983,29.1551476 6.55450228,29.1441171 C7.35867172,28.6986967 7.08081043,27.6602577 7.06820421,27.6150854 C7.06347689,27.5988023 7.06662848,27.5825193 7.06452742,27.5662362 C5.57752307,26.474746 5.00131542,24.745065 4.82377833,24.0443682 C4.75654535,24.0244083 4.68983763,23.9871149 4.62365518,23.9445688 Z M15.5054177,24.112652 C15.4376595,24.141016 15.3678002,24.1662285 15.2947894,24.1835621 C15.1272322,24.8837336 14.596722,26.5094132 13.1927083,27.5583573 C13.2321026,28.8520726 13.5540856,29.1089247 13.6008335,29.1367635 C13.7662897,29.1472687 13.9207154,29.1635517 14.0798685,29.1772085 C14.13397,28.8867397 14.2064556,28.5973215 14.3120324,28.3126306 C15.0074734,26.4427052 15.4213765,24.9709267 15.5054177,24.112652 Z M23.9986123,20.5767295 C23.9072775,21.2217306 23.9046377,21.708633 23.9046377,21.7191379 C23.9041098,21.8803881 23.8053837,22.0253558 23.6549187,22.0847085 L23.6549187,22.0847085 L23.2879955,22.2302015 C23.2790204,22.6062771 23.3492374,23.4755579 23.4358207,24.2051236 C23.4479635,24.3070212 23.4162866,24.4031411 23.3592684,24.4814026 C23.393057,24.5270989 23.4199823,24.578573 23.4315971,24.6379257 C23.462746,24.7986507 24.2351326,28.5777902 27.583901,28.5777902 C28.7416891,28.5777902 29.600659,28.3535105 30.259009,27.9847883 C30.3202509,27.9107287 30.4036665,27.8592547 30.4997529,27.8440226 C31.6311435,27.0913462 32.0909855,25.8580703 32.4431261,24.6058857 C32.4563248,24.5570379 32.4816663,24.5134426 32.5122872,24.4740491 C32.3665738,24.3900099 32.285798,24.2256081 32.3195865,24.0585802 C32.3971948,23.6751512 32.355487,22.5952469 32.3238101,22.036386 C30.565158,20.7676036 27.1741615,21.2320739 26.760058,21.2945822 L26.7185958,21.3010427 C26.6135343,21.3204768 26.5058331,21.2936892 26.4197777,21.2317103 C26.3743743,21.2642755 26.3215795,21.2879115 26.2640333,21.299467 L26.2640333,21.299467 L24.5175843,21.6450783 C24.410939,21.6650376 24.300598,21.6424521 24.211375,21.5799479 C24.1226799,21.5174437 24.0635498,21.4218491 24.0482393,21.314699 C24.021314,21.1298127 24.0065315,20.8703416 23.9986123,20.5767295 Z M12.0844147,18.3363682 C11.913706,19.1174298 11.7088555,19.7640248 11.6930978,19.8139245 C11.6605318,19.9163502 11.5869957,20.000917 11.4903483,20.0481904 C11.3931756,20.0954638 11.281821,20.1007164 11.1804463,20.063423 C9.68661359,19.509799 7.35079282,20.3418108 6.73886768,20.5802788 L6.73886768,20.5802788 L6.03764877,22.4102845 C5.97671883,22.5704887 5.81231324,22.6718639 5.64948337,22.6629345 C5.47877459,22.6540051 5.33327827,22.5363469 5.28968188,22.37089 L5.28968188,22.37089 L5.07432624,21.5630402 C4.97505257,21.8603373 4.88680926,22.1408261 4.83008144,22.3241418 C4.83901081,23.0894456 5.02074995,23.2885191 5.05541697,23.292196 C5.16467055,23.255953 5.26762108,23.2738119 5.36636949,23.3336915 C5.46459264,23.3935711 5.51501741,23.4980979 5.53340141,23.611554 C5.56124006,23.7796372 6.24985281,27.7290668 10.1183753,27.7290668 C11.0843242,27.7290668 11.8448972,27.4905988 12.4426404,27.1307957 C12.500944,27.0168143 12.6112481,26.9385505 12.743613,26.9217423 C14.2736886,25.789807 14.5667823,23.8531736 14.58254,23.7381417 C14.5998736,23.6126045 14.6765611,23.5028252 14.788441,23.4434708 C14.886139,23.3919953 14.9995946,23.3835912 15.1025451,23.4193088 C15.1524446,23.4098542 15.2406879,23.3694092 15.3231533,23.3221357 C15.3436383,23.1440726 15.3625476,22.8010779 15.2937389,22.3262428 L15.2937389,22.3262428 L15.2958399,22.2847473 C15.2953146,22.2647874 15.290062,22.2458781 15.2921631,22.2253929 C15.4029925,21.2410558 15.1949904,20.6821792 14.9854126,20.3791042 L14.9854126,20.3791042 L14.2952241,22.397153 C14.23587,22.5704887 14.0672623,22.6797428 13.8823716,22.6613587 C13.7001072,22.6429746 13.5546108,22.5011544 13.5320248,22.3188892 L13.5320248,22.3188892 L13.3261238,20.6926844 L12.496742,20.4195492 C12.3044977,20.3559928 12.1915672,20.1569192 12.2356889,19.9588963 C12.3160533,19.60277 12.22781,18.9771854 12.0844147,18.3363682 Z M25.9330105,12.9795824 C25.9963641,13.0725508 26.017482,13.1912562 25.9863332,13.3031334 C25.9440974,13.4570303 25.8126386,13.5710085 25.6537265,13.5904426 C25.6357763,13.5930688 24.360784,13.7590463 23.3159767,14.3100286 C23.3413182,14.3047761 23.3666597,14.3026751 23.3920011,14.3026751 C23.5456337,14.3026751 23.6892353,14.3919668 23.7536448,14.5369345 C23.8307251,14.7092149 23.7737068,14.9114344 23.6184904,15.0196349 C23.6010681,15.0317155 21.8646501,16.2634156 21.516733,18.4741728 C21.3044982,19.8214269 21.6386887,21.2563968 22.5103294,22.7543962 C22.4902674,22.3441797 22.495019,21.9896392 22.5509814,21.8241869 C22.5879377,21.7138854 22.6713533,21.6261695 22.7801104,21.5830994 L22.7801104,21.5830994 L23.1201084,21.4486365 C23.1507293,20.7752722 23.3085854,19.005721 24.111593,17.8155153 C24.2103191,17.6684466 24.3972124,17.6048919 24.5645716,17.6610932 C24.7335147,17.7162439 24.8443836,17.876969 24.8354084,18.0539766 C24.8343526,18.0739359 24.7525207,19.8103967 24.7973962,20.7863023 L24.7973962,20.7863023 L25.8184459,20.5840829 C25.868073,20.0850999 25.9821096,19.1748499 26.1822015,18.7788151 C26.2629774,18.620191 26.4403676,18.532475 26.615646,18.5702927 C26.7914525,18.6060094 26.9207995,18.7546538 26.9313584,18.9327119 L26.9313584,18.9327119 L27.0221653,20.464327 C28.1635869,20.3309147 31.2383509,20.1286953 32.9584025,21.5289991 C33.042874,21.5978062 33.0951408,21.6986533 33.10306,21.8073791 C33.1083395,21.8898426 33.1326251,22.2643424 33.1463517,22.7071242 C33.9203222,21.2800328 34.8563724,18.8029763 33.642094,16.6137542 C31.8238442,13.3351734 27.8146139,13.9082159 27.6451429,13.9344782 C27.4313243,13.9665182 27.2296485,13.822601 27.1937482,13.6098767 C27.1742141,13.4937975 27.2080027,13.3803445 27.2776918,13.29578 C27.0005195,13.2238214 26.4746842,13.0909344 25.9330105,12.9795824 Z M16.6179134,20.8639192 C16.4183155,21.5882527 16.1898284,22.1192905 16.0879284,22.3367481 C16.1047367,22.4722651 16.1157671,22.5983276 16.1220702,22.7138847 C16.2838495,22.4286686 16.4666392,22.0236932 16.6299943,21.5278477 C16.6326206,21.5036858 16.6294691,21.4800491 16.6362974,21.4558871 C16.6447015,21.4269978 16.6625603,21.4044116 16.6772675,21.3786739 C16.6935505,21.3266732 16.7103587,21.277824 16.7261164,21.2237222 C16.7670866,21.0813767 16.7381974,21.0088909 16.712985,20.9663448 C16.6898737,20.9280008 16.6562572,20.8943842 16.6179134,20.8639192 Z M10.3578928,12.7885726 C7.92962679,12.7885726 6.11433638,13.682565 5.07485151,15.4027914 C3.98336614,17.2096856 3.94607286,19.6405887 4.38098617,21.1517616 C4.51912892,20.7446852 4.67355469,20.3192246 4.78753558,20.0949385 C4.86107161,19.9489163 5.01549737,19.8632989 5.17990303,19.8806325 C5.34220764,19.8974408 5.47772413,20.012998 5.51974472,20.1711013 L5.51974472,20.1711013 L5.73772661,20.9915573 L6.06443688,20.1385351 C6.10225542,20.039261 6.17894304,19.9594215 6.27664099,19.9174007 C6.39639973,19.8664505 9.05682965,18.7355658 11.0522834,19.2046229 C11.2408509,18.5406944 11.5990766,17.1424523 11.5176617,16.3388046 C11.4971767,16.1402563 11.6290163,15.9579911 11.8238869,15.9143946 C12.0187575,15.870798 12.2152039,15.9800521 12.2813863,16.1680951 C12.3722559,16.4275735 13.0981619,18.5338659 13.0482625,19.7713784 L13.0482625,19.7713784 L13.8093608,20.0219275 C13.9538066,20.0697261 14.0578077,20.1957885 14.0767169,20.3470634 L14.0767169,20.3470634 L14.1003535,20.5324801 L14.4302153,19.5665271 C14.4654076,19.4635761 14.5420952,19.3795345 14.6413689,19.3348874 C14.7416931,19.2897151 14.8551487,19.2886645 14.9554729,19.3306853 C14.9927662,19.3464431 15.5826306,19.6059216 15.9046135,20.459469 C15.9208965,20.392761 15.9356037,20.3202751 15.9513614,20.2509408 L15.9513614,20.2509408 L15.9513614,20.2336072 C15.9529372,20.2267788 15.9576645,20.2215262 15.9592403,20.2146978 C16.2129398,19.0780353 16.3242943,17.5899738 15.7223491,16.214318 C15.0274332,14.6275077 13.516267,13.4876936 11.230871,12.8248155 C10.9319995,12.8006535 10.6404814,12.7885726 10.3578928,12.7885726 Z" id="Combined-Shape" fill="#747474" fill-rule="nonzero" mask="url(#mask-2)"></path>
            </g>
        </g>
    </g>
</svg>