<svg xmlns="http://www.w3.org/2000/svg" width="16.587" height="16.587" viewBox="0 0 16.587 16.587">
  <g id="edit" transform="translate(0.253 0.25)">
    <g id="Group_9147" data-name="Group 9147" transform="translate(0 0)">
      <path id="Path_29056" data-name="Path 29056" d="M15.647,2.9,13.181.436a1.486,1.486,0,0,0-2.1,0L1.4,10.116a.53.53,0,0,0-.14.249L.016,15.426a.531.531,0,0,0,.642.642l5.061-1.243a.53.53,0,0,0,.249-.14L15.647,5A1.486,1.486,0,0,0,15.647,2.9ZM1.255,14.828l.051-.206.156.156Zm1.411-.346L1.6,13.417l.463-1.885,2.487,2.487Zm2.926-.922L2.524,10.491l7.922-7.923,3.068,3.068ZM14.9,4.254l-.613.613L11.216,1.8l.613-.613a.425.425,0,0,1,.6,0L14.9,3.652A.425.425,0,0,1,14.9,4.254Z" transform="translate(0 0)" fill="#5e50ad" stroke="#5e50ad" stroke-width="0.5"/>
    </g>
  </g>
</svg>
