<?xml version="1.0" encoding="UTF-8"?>
<svg width="38px" height="38px" viewBox="0 0 38 38" version="1.1" xmlns="http://www.w3.org/2000/svg" xmlns:xlink="http://www.w3.org/1999/xlink">
    <title>Married</title>
    <defs>
        <circle id="path-1" cx="18" cy="18" r="18"></circle>
    </defs>
    <g id="Page-1" stroke="none" stroke-width="1" fill="none" fill-rule="evenodd">
        <g id="C02" transform="translate(-227.000000, -417.000000)">
            <g id="Married" transform="translate(228.000000, 418.000000)">
                <mask id="mask-2" fill="white">
                    <use xlink:href="#path-1"></use>
                </mask>
                <use id="Mask" stroke="#747474" fill="#F7F7F7" xlink:href="#path-1"></use>
                <path d="M23.7575067,12.2309146 C24.7514545,11.5733698 27.2782435,10.5203889 29.7302843,11.2440923 C31.4712082,11.7571995 32.8040477,13.0455228 33.6914289,15.0732053 C36.4364015,21.3431128 31.9186866,24.7308324 31.4035308,25.0899065 C31.1515084,25.3989829 30.8924154,25.6742224 30.6247363,25.911585 C30.6302919,26.2247017 30.6469588,26.5221625 30.6732216,26.7958869 L30.6732216,26.7958869 L31.1525186,27.0443601 C31.2595902,26.9080029 31.4454503,26.8600254 31.6055527,26.9322442 L31.6055527,26.9322442 L38.1899517,29.9194776 C38.2838918,29.9624049 38.3566197,30.041189 38.3904584,30.1386592 C38.4248021,30.2356243 38.4182364,30.34269 38.3722764,30.4346049 L38.3722764,30.4346049 L38.1495472,30.8780184 L40.2727975,35.4621465 C40.3268384,35.5793127 40.3177474,35.716175 40.2480498,35.8252607 C40.1783522,35.9343465 40.0581492,36 39.9288552,36 L39.9288552,36 L15.6862266,36 C15.560973,36 15.4438003,35.9378817 15.3735977,35.8348562 C15.30289,35.7313258 15.2882434,35.6000188 15.3336983,35.4833576 L15.3336983,35.4833576 L17.2291689,30.6416659 C17.2332093,30.6310603 17.2423003,30.6234849 17.2473508,30.6128794 C17.2518963,30.6032838 17.2524014,30.5921732 17.258462,30.5825778 C17.2650277,30.5714671 17.2761389,30.5649018 17.2842198,30.5548013 C17.2998765,30.5340952 17.3165433,30.5154092 17.3362405,30.4982383 C17.3544224,30.4825824 17.3726044,30.4689467 17.3933117,30.4573311 C17.4039178,30.4512707 17.4114936,30.4411702 17.4231099,30.435615 L17.4231099,30.435615 L19.9201006,29.2831438 C20.0276773,28.4513647 20.2509115,27.6958447 20.5332371,27.1125388 C21.1155653,25.91007 22.5691129,25.3590858 23.5226563,25.118693 C23.483262,25.0944517 23.4479082,25.0777859 23.4064936,25.0505144 C20.7387944,23.271305 19.5554511,19.8962111 20.5291967,16.8418091 C21.3196074,14.3626327 22.9867931,12.7414967 23.7575067,12.2309146 Z M15.2732785,13.2157267 C15.2890329,13.2308863 15.3038324,13.2475618 15.3167224,13.2652479 C16.8248437,15.3269444 16.6252886,17.8505014 16.1354713,19.7146187 C16.1383358,19.7176506 16.142155,19.7186612 16.1454968,19.7216931 C16.4691773,20.0405486 16.3541227,20.6681533 16.240023,21.1128329 C15.9301874,22.3144786 15.7144004,23.765246 15.7144004,24.3155371 C15.7144004,24.5489939 15.6303772,24.7511209 15.4714015,24.8996844 C15.276143,25.0821041 15.0073641,25.1412263 14.7915772,25.1563858 C14.6803419,25.681411 14.3805317,26.7228709 13.6606055,27.6698364 C13.6582185,27.684996 13.6615603,27.7001555 13.6577411,27.7153151 C13.5710444,28.0516546 13.5353727,28.4478237 13.5284828,28.8406941 L13.5283644,29.1337421 L17.231,30.541 L16.959,31.244 L13.5718083,29.9553887 C13.6079,30.3646961 13.6532726,30.6671743 13.6630302,30.7291025 L13.6649021,30.7406526 C13.6878176,30.8801203 13.6357805,31.0216092 13.5297967,31.1075133 C12.2460554,32.1464466 10.9809331,32.4930946 9.86476095,32.4930946 C7.64339696,32.4930946 6.01019556,31.1216622 5.9858479,31.1004388 C5.84978759,30.9837104 5.81398222,30.7795621 5.9008699,30.6183657 C5.95624885,30.5152808 5.9969619,30.3669195 6.02643112,30.1893226 L6.04647829,30.0508938 L0.545821625,31.9443195 L-1.05539366,35.2420233 L15.413,35.242 L15.12,36 L-1.64212401,36 C-1.7418061,36 -1.83568296,35.9560172 -1.90273349,35.8807288 L-1.947663,35.8185909 C-1.99960463,35.728038 -2.01304835,35.6203446 -1.98726085,35.520607 L-1.96055293,35.4476877 L-0.0237221506,31.4587091 C0.00850266346,31.3920072 0.0584511286,31.3375276 0.119476873,31.3014527 L0.183948882,31.2717416 L6.08992216,29.2388481 C6.09087694,28.6936102 6.04982018,28.1124948 5.99873786,27.6935864 C5.99587339,27.6693311 6.00207969,27.6470971 6.0035119,27.6233472 C5.24921251,26.6758764 4.79281361,25.6394696 4.5932585,25.1154551 C4.55029205,25.1124232 4.50637082,25.1043381 4.46197222,25.0891786 C4.03708201,24.9487002 3.88956399,24.3589944 3.81556626,23.9279583 C3.7582777,23.5954592 3.65086164,23.1780667 3.53723934,22.736419 C3.21881041,21.4973798 2.91756806,20.321 3.37301212,19.8379162 C2.91804547,18.4018031 2.82542896,17.139014 3.10709772,16.0677403 C3.38733426,15.0020251 3.96165209,14.4466808 4.22899873,14.2364687 C4.4234783,13.0501953 5.41920427,12.2775378 5.56650661,12.1689859 L5.58291836,12.157086 L5.60676797,12.1414435 C5.82158966,12.0128722 10.899156,9.04958877 15.2732785,13.2157267 Z M37.7157052,31.7431292 L35.9591247,35.2424598 L39.3364259,35.2424598 L37.7157052,31.7431292 Z M17.7700825,31.3380978 L16.2412817,35.2424598 L24.1868033,35.2424598 L22.6847704,34.3233111 C22.3135552,34.662184 22.0312295,34.8712652 21.9938555,34.8980316 C21.9271883,34.9465142 21.8494098,34.9697454 21.7721365,34.9697454 C21.6726407,34.9697454 21.5736499,34.9308583 21.4999119,34.8545993 C20.9317253,34.2677581 20.5362674,33.5839519 20.2731339,32.8622686 L20.2731339,32.8622686 L17.7700825,31.3380978 Z M31.571209,27.7488725 L29.7444259,30.2134032 L27.6686508,33.1607394 C27.6257212,33.2218477 27.5646095,33.2607347 27.4974372,33.2880062 L27.4974372,33.2880062 L26.1039911,35.1586254 L35.1353804,35.1949873 L37.5182288,30.4467255 L31.571209,27.7488725 Z M24.811556,29.7841304 C24.8216571,29.8603895 24.8312532,29.9295781 24.8413543,30.0113924 C25.0287296,31.4946561 24.0893277,32.8637837 23.2388155,33.774347 L23.2388155,33.774347 L25.2509537,35.0050972 L26.8454115,32.8536832 Z M24.3792291,25.7171497 C23.8777097,25.7929038 21.8281975,26.1772292 21.215061,27.4423213 C20.4630345,28.9952785 20.1751533,32.096648 21.8165813,34.0738279 C22.5110316,33.4975923 24.3070063,31.8264587 24.0898327,30.1063375 C24.0443779,29.7442333 24.0009431,29.4331368 23.9635691,29.1639575 C23.7701331,27.7796791 23.7090215,27.2534412 24.5554932,26.8938622 C24.6206453,26.4494386 24.5873117,26.041882 24.5660994,25.8661326 C24.4999373,25.8151249 24.4378155,25.7651273 24.3792291,25.7171497 Z M25.3519646,26.3923706 C25.3469141,26.9438598 25.2438829,27.6968547 24.8140813,28.2983416 L24.8140813,28.2983416 L27.3615775,32.1567462 L29.1302793,29.7704947 L30.1434192,28.3316734 C30.0742267,28.0215869 29.9393771,27.324145 29.8863463,26.457519 C29.2464419,26.8524499 28.5701736,27.0675914 27.8600665,27.0867824 L27.8600665,27.0867824 L27.7529949,27.0882975 C26.8343004,27.0882975 26.010051,26.7696256 25.3519646,26.3923706 Z M19.8569688,30.1472447 L18.3862493,30.8260006 L19.9837375,31.7991873 C19.8802013,31.2461829 19.8423222,30.6891384 19.8569688,30.1472447 L19.8569688,30.1472447 Z M6.78359116,28.4540896 C6.82321572,29.1332367 6.83085422,30.0564523 6.64896299,30.6759719 C7.40899127,31.2242417 10.0643161,32.8104342 12.9254023,30.6385784 C12.8915066,30.3894567 12.8447209,29.9634738 12.8232377,29.4783687 C12.8151218,29.4379434 12.8136896,29.3980232 12.8179862,29.3560819 C12.8089156,29.0902847 12.8108252,28.8118546 12.8261022,28.5319086 C12.1816059,29.0528912 11.3389866,29.4586614 10.2318851,29.5885281 C10.0504714,29.6097514 9.8738316,29.6203631 9.70196593,29.6203631 C8.50654465,29.6203631 7.54314201,29.1256569 6.78359116,28.4540896 Z M5.77006099,17.3209284 C5.30268181,18.5215634 5.17855662,21.2442156 5.17091812,22.2684947 C5.16996333,22.4403027 5.06016025,22.5893715 4.90309411,22.6328288 C4.87301762,22.6409139 4.84294114,22.6449564 4.81286466,22.6449564 C4.68635242,22.6449564 4.56604642,22.5737067 4.50159678,22.4524304 C4.28533245,22.0481762 4.09962203,21.6575656 3.92823377,21.2740293 C4.01416661,21.7040547 4.14020143,22.1952236 4.22804389,22.5373238 C4.34596284,22.9951417 4.45719813,23.4276937 4.51973814,23.7920278 C4.57034304,24.0841015 4.62715423,24.2382234 4.66486916,24.3145264 C4.73982172,24.2796595 4.82432236,24.2715744 4.90500374,24.2938084 C5.02149048,24.3276647 5.11744881,24.4196325 5.15420896,24.5419194 C5.16853113,24.5889139 6.62222834,29.2499651 10.1526359,28.8350992 C13.6868627,28.419728 14.1232107,24.8779557 14.1399198,24.727371 C14.1513775,24.6268128 14.2000728,24.5353502 14.2750253,24.4726909 C14.3499778,24.4105368 14.4464136,24.3817337 14.5399849,24.3948719 C14.7342886,24.4196325 14.9591462,24.3787017 14.9992482,24.3296859 C14.9982934,23.8743946 15.1166898,22.9486524 15.3071742,21.9860221 C15.2121707,22.1856226 15.1448566,22.3114467 15.1286249,22.3412605 C15.0641753,22.4600102 14.9453015,22.5307546 14.8183119,22.5307546 C14.8011253,22.5307546 14.7839387,22.529744 14.7667521,22.5267121 C14.6211437,22.5039728 14.5037022,22.3902763 14.4702838,22.2391863 C14.2258526,21.1456786 13.9036045,19.8687406 13.757996,19.4867204 C13.6510574,19.4698765 13.4649757,19.4577488 13.2625561,19.4476425 L12.954524,19.433662 C11.2716725,19.3603909 8.13989784,19.2239551 5.78008649,17.3295187 C5.77674465,17.3264869 5.77388024,17.3239602 5.77006099,17.3209284 Z M25.3529747,16.0211406 C23.3812409,17.1630062 23.446393,19.8209621 23.4474031,19.8482335 C23.4534638,20.0325683 23.3256849,20.1946819 23.1443702,20.2315489 C23.0357835,20.2542751 22.9256815,20.2270036 22.8413374,20.1638753 C22.8958833,20.5835525 22.948914,21.0608028 22.948914,21.5087616 C22.948914,22.0587358 23.1130568,22.251656 23.1766937,22.2799375 C23.3529578,22.3157944 23.4479082,22.4622521 23.4479082,22.6420417 C23.4479082,23.1480785 24.0615497,24.2035845 24.4590278,24.7687095 C24.8418593,25.1489946 26.2029819,26.3716645 27.8439048,26.3292422 C28.5631028,26.3090411 29.2509874,26.0353166 29.8994777,25.5242295 C29.9439225,25.4272644 30.0297819,25.3585807 30.1398838,25.3277741 C30.3838252,25.1096025 30.6227161,24.8565841 30.8545362,24.5677088 C30.8580716,24.5631635 30.8636272,24.5611435 30.8676677,24.5565982 C30.8717081,24.552053 30.8732233,24.5459926 30.8777688,24.5414474 C31.3757528,24.0268251 31.6196942,22.8142558 31.6717149,22.3900333 C31.6949474,22.2001433 31.8560598,22.0572206 32.0474756,22.0572206 C32.0989912,22.0567157 32.1671736,22.045605 32.2101032,22.0319693 C32.2272751,21.8602602 32.2510127,21.2188762 32.2681846,20.7411209 C32.281316,20.3911373 32.2924272,20.1088274 32.3040435,19.8820703 C32.2232347,19.9977215 32.1606079,20.0760006 32.1429309,20.0987268 C32.0429301,20.2219534 31.876262,20.2704359 31.7262608,20.2194282 C31.5757545,20.1684205 31.4732284,20.0285281 31.4691879,19.8699497 C31.3858539,16.5175819 26.1534865,16.0696232 25.3529747,16.0211406 Z M27.9969364,11.7612397 C26.443893,11.7612397 24.9575168,12.3455557 24.1756921,12.8627031 C23.6176066,13.2318777 22.0044616,14.709081 21.2509199,17.0721013 C20.4872771,19.4684534 21.2064751,22.0855022 23.00346,23.7677464 C22.86558,23.4652354 22.7539629,23.1551489 22.7100232,22.8778892 C22.478203,22.7076951 22.1913319,22.3304401 22.1913319,21.5087616 C22.1913319,21.00828 22.1145636,20.44063 22.053452,19.9850958 C21.9625421,19.3088649 21.9357742,19.065442 22.0292093,18.8715117 C22.1595135,18.6033425 22.3872932,18.4498144 22.6266891,18.4639551 C22.6736592,18.4674903 22.7509326,18.480116 22.8327515,18.5250634 C23.0580059,17.481173 23.6317481,16.0862891 25.0837805,15.3040026 C25.1428719,15.2721859 25.2095392,15.25451 25.2757014,15.2585502 C25.5297439,15.2666306 30.9742342,15.4807619 32.0459605,18.7664661 C32.0580818,18.7285892 32.0676778,18.6912172 32.0747486,18.6553603 C32.0974761,18.5381941 32.1737393,18.4387038 32.281316,18.386686 C32.3888926,18.3346683 32.5146512,18.3361834 32.6207128,18.3907263 C32.9500085,18.5614253 33.2429402,18.9366602 33.1065755,19.3588626 C33.0722317,19.4957248 33.0439487,20.2618504 33.0252616,20.7688973 C32.9838472,21.9087428 32.9631399,22.2031734 32.9030384,22.3587217 C33.7954701,20.8491966 34.3777983,18.5296086 32.9974836,15.3772315 C32.2035375,13.5636803 31.0323155,12.4177745 29.5161411,11.9703208 C29.0176521,11.823358 28.5035064,11.7612397 27.9969364,11.7612397 Z M5.97248057,12.7937864 C5.87365783,12.8670575 4.93698985,13.5931991 4.91073261,14.5927177 C4.90595852,14.7574513 4.9293514,14.9226902 4.97422741,15.0884344 C5.01671644,15.222849 5.074005,15.362822 5.14131905,15.5038056 C5.35328671,15.9115971 5.70752097,16.3198938 6.21309256,16.725664 C8.39339973,18.4765901 11.379566,18.6064568 12.9836457,18.6761906 C13.8611155,18.7140895 14.156629,18.7272277 14.3160822,18.9808972 C14.4702838,19.2254711 14.7247405,20.1891121 14.9285924,21.0355194 C15.5621083,19.45438 16.5145307,16.1748676 14.770094,13.7559114 C10.8028611,10.0049376 6.21595697,12.6482549 5.97248057,12.7937864 Z M4.26719109,15.243567 C3.7377493,15.9530331 3.10709772,17.5917787 4.50732566,20.8101476 C4.57941375,19.5781829 4.75032464,17.8676822 5.15468638,16.9161688 C4.96754375,16.6665418 4.66391438,16.2243888 4.44478564,15.7276614 C4.41327689,15.6594435 4.38558746,15.5907203 4.36028501,15.5214918 C4.34357585,15.4765185 4.32877626,15.4315452 4.31397673,15.3865719 C4.30251903,15.3481678 4.28676465,15.3107742 4.27673916,15.2723701 C4.27387475,15.2627691 4.2700555,15.253168 4.26719109,15.243567 Z" id="Combined-Shape" fill="#747474" fill-rule="nonzero" mask="url(#mask-2)"></path>
            </g>
        </g>
    </g>
</svg>