<?xml version="1.0" encoding="UTF-8"?>
<svg width="38px" height="38px" viewBox="0 0 38 38" version="1.1" xmlns="http://www.w3.org/2000/svg" xmlns:xlink="http://www.w3.org/1999/xlink">
    <title>Parent</title>
    <defs>
        <circle id="path-1" cx="18" cy="18" r="18"></circle>
    </defs>
    <g id="Page-1" stroke="none" stroke-width="1" fill="none" fill-rule="evenodd">
        <g id="A08" transform="translate(-214.000000, -288.000000)">
            <g id="Parent" transform="translate(215.000000, 289.000000)">
                <mask id="mask-2" fill="white">
                    <use xlink:href="#path-1"></use>
                </mask>
                <use id="Mask" stroke="#747474" fill="#F7F7F7" xlink:href="#path-1"></use>
                <path d="M25.9095381,10 C32.1773808,10.4232744 32.7190193,17.0669367 32.7626558,17.9303946 C33.024475,18.5123969 34.4808444,22.0071378 33.0430205,24.7796941 C32.3148358,26.1847905 30.9708307,27.148067 29.0491867,27.6569781 L29.0491867,27.6569781 L30.7750117,28.3497081 C30.8786485,28.343708 30.9850125,28.3764354 31.0695582,28.451163 C31.0771947,28.4582539 31.0804674,28.4680722 31.0881038,28.4757086 L31.0881038,28.4757086 L36.4575794,30.6318988 C36.5601252,30.6728081 36.6419437,30.7535356 36.6839439,30.8560815 L36.6839439,30.8560815 L38.9694073,36.4361033 C39.0212257,36.5621038 39.0064984,36.7055589 38.9306799,36.8190139 C38.8548614,36.9319234 38.7272245,37.0001055 38.5908604,37.0001055 L38.5908604,37.0001055 L12.4089399,37.0001055 C12.2725757,37.0001055 12.1449389,36.9319234 12.0691204,36.8184684 C12.0263953,36.7546859 12.0033059,36.6815123 12.00033,36.607259 L11.85,37 L-3.59113324,37 C-3.72367888,37 -3.84858814,36.9356898 -3.92495189,36.8272344 C-3.98647925,36.7400341 -4.01100292,36.6339985 -3.99545089,36.5308928 L-3.97622469,36.4544531 L-2.2929496,31.7189309 C-2.2688132,31.6498519 -2.22626768,31.5890501 -2.17083579,31.5425035 L-2.11131298,31.5009301 L3.74142252,28.150803 L4.70687839,27.0727891 C4.76374211,27.0090239 4.83870812,26.9654919 4.92073098,26.9467915 L5.00469703,26.9365386 L5.43615217,26.9289086 C4.37960518,25.8743298 3.92960455,24.4878448 3.71905882,23.2049101 C2.77051204,23.2049101 2.47760255,22.2647817 2.01342008,20.4913453 C1.77778339,19.5931821 1.83341983,18.8623345 2.17869304,18.3195125 C2.36905694,18.0208514 2.60960273,17.8393658 2.81251209,17.7303653 C2.61778456,17.0175028 2.48414801,16.513376 2.48414801,16.513376 C2.47760255,16.4883059 2.47378436,16.4632358 2.47160254,16.4376207 C2.26588797,13.5911533 3.43308812,12.7566205 4.73163105,11.9783476 L4.92724234,11.8617842 C5.00415157,11.816004 5.08869714,11.8056489 5.17106084,11.813279 C6.02251664,10.8442655 7.38124581,10.2404033 9.22815745,10.0262175 C10.5721593,9.87034696 11.8899794,10.4131689 12.9312536,11.5565831 C13.304345,11.9664245 13.6147091,12.4274962 13.847073,12.8961979 C13.9032549,12.8940179 13.9599823,12.9011029 14.0156187,12.923448 C16.6807134,13.9889268 16.1488945,15.4920423 15.9214396,16.1335096 C15.8903487,16.2212549 15.8603486,16.2948302 15.8521667,16.3531454 C15.812894,16.6305514 15.6732574,17.1553883 15.5047117,17.7325454 C15.7005302,17.7941306 15.9143487,17.902586 16.0998035,18.1020567 C16.4723495,18.5015431 16.5890769,19.1114004 16.4483494,19.9136433 C16.1041671,21.8745603 15.4583481,22.9841844 14.5321649,23.2365202 C14.2948919,24.4633197 13.8208912,25.8198296 12.8816172,26.8613283 L12.8482762,26.8950504 L12.8145261,26.9283636 L13.3217996,26.9365386 C13.4072997,26.9381736 13.4894248,26.9661731 13.5573595,27.0159386 L13.6201636,27.0727891 L14.5834377,28.148623 L17.32,29.663 L16.39,30.082 L14.4448921,29.0064561 L9.38361225,36.0407965 C9.34393035,36.0955692 9.28982799,36.1331744 9.22981939,36.1595899 L9.16815738,36.182497 L12.134,36.182 L14.2127651,31.1762646 C14.2434471,31.1026279 14.2946859,31.0400368 14.3595782,30.9956247 L14.428766,30.9575364 L21.8082494,27.777524 C20.7216996,27.575705 18.7449647,26.9751572 17.670415,25.2046048 C16.5800471,23.408416 16.7355023,20.9260427 18.1324168,17.8262124 C18.1678715,16.9387544 18.6822372,10.1052731 25.9095381,10 Z M3.87833176,29.0146311 L-1.57294859,32.1347674 L-3.0118597,36.182497 L8.93633889,36.182497 C8.87047516,36.1624682 8.80860008,36.1323228 8.75922783,36.0858529 L8.71433854,36.0337115 L3.87833176,29.0146311 Z M21.9697046,28.5989817 L14.9049497,31.6431755 L13.0214878,36.1819205 L17.7320516,36.1819205 L18.3205994,33.9051843 C18.3773269,33.6864562 18.5998732,33.5555466 18.8191468,33.6117286 C19.0378749,33.6679106 19.16933,33.8910025 19.1126024,34.1097305 L19.1126024,34.1097305 L18.7504192,35.5120997 L24.9691708,30.7251719 C24.928807,30.7268083 24.8857159,30.7317173 24.8458976,30.7317173 C22.9226173,30.7317173 21.7798856,29.4749852 21.7651583,29.4586215 C21.6287941,29.3048027 21.6282487,29.0735291 21.7629764,28.9186193 C21.8442495,28.8253463 21.9124316,28.7168004 21.9697046,28.5989817 L21.9697046,28.5989817 Z M29.0950051,28.5820726 L19.2216938,36.1819205 L27.1728158,36.1819205 L30.8939212,31.5073567 C31.0351945,31.3306288 31.2921046,31.3017196 31.469378,31.4424474 C31.6455605,31.5831752 31.6750152,31.8406308 31.5342874,32.0173588 L31.5342874,32.0173588 L28.2190017,36.1819205 L30.1139182,36.1819205 L34.5801174,30.8348087 L30.8601029,29.3069845 L26.8455418,33.8571841 C26.7648142,33.9488209 26.6519046,33.9957301 26.5384496,33.9957301 C26.4424493,33.9957301 26.3459035,33.9619118 26.2684486,33.8931843 C26.0988116,33.7437291 26.0829933,33.4851827 26.231903,33.3160911 L26.231903,33.3160911 L30.0588271,28.9780741 L29.0950051,28.5820726 Z M32.0551985,35.1340982 L31.180286,36.1819205 L32.2706539,36.1819205 L32.0551985,35.1340982 Z M35.4255753,31.0988097 L32.7053829,34.3557315 C32.7250193,34.3917317 32.7452012,34.4282773 32.753383,34.4702774 L32.753383,34.4702774 L33.1057481,36.1819205 L37.9810398,36.1819205 L35.9923048,31.3262652 L35.4255753,31.0988097 Z M5.27742464,27.7496815 L5.19724274,27.7507716 L4.52087816,28.5061443 L9.05852084,35.0919481 L13.8012548,28.5006943 L13.1292539,27.7513166 C13.1768176,27.867729 13.1709703,27.9987911 13.1114327,28.1073903 L13.0567083,28.1840482 L9.46597602,32.1304074 C9.4082941,32.1937639 9.33281671,32.2368872 9.25058933,32.2549489 L9.16652104,32.2644779 C9.07938453,32.2644779 8.9965435,32.2381134 8.92812297,32.1899829 L8.86488427,32.1347674 L5.2741519,28.3012236 C5.19724274,28.2194732 5.15742449,28.1093829 5.16451543,27.9971124 C5.16996997,27.9028272 5.21415183,27.8183519 5.27742464,27.7496815 Z M12.1032524,27.5622009 C11.3092513,28.137723 10.3548333,28.4632027 9.25134214,28.5310838 L8.9467025,28.5432045 L8.93906616,28.5432045 C8.9177934,28.5432045 8.89706611,28.5415695 8.87633881,28.5388444 C7.92942836,28.3922389 7.15433639,28.1164679 6.51779006,27.7518616 L6.50449457,27.7694379 L6.48997183,27.7861967 L6.16651682,28.0576077 L9.15888463,31.2529542 L12.2570708,27.8483269 L12.1032524,27.5622009 Z M27.617363,26.4046096 C26.8957238,26.75152 26.0595387,26.9609754 25.1098986,27.0204301 C25.0204438,27.0258847 24.9320798,27.028612 24.8453521,27.028612 C24.1526222,27.028612 23.5597107,26.8475203 23.046436,26.5644284 C23.0955272,27.3029767 23.0638906,28.3606172 22.6111616,29.1324384 C23.1320727,29.5589855 24.4929871,30.3940797 26.4800858,29.5628037 L26.4800858,29.5628037 L27.7329998,28.5978909 C27.5944538,28.1086162 27.4744533,27.3471587 27.617363,26.4046096 Z M8.95433891,23.5221013 C7.04429079,23.5221013 6.32649811,24.0816953 6.115414,24.3058082 L6.09069853,24.3330642 L6.09069853,26.3833617 L6.08415305,26.4182417 C6.74579035,27.042814 7.6665189,27.5186008 8.96633893,27.7251565 C10.1303406,27.6973614 11.1017965,27.3512851 11.8670703,26.7027328 C12.2783435,25.4001781 12.1654343,24.3101742 12.1337979,24.0796383 C11.9505249,23.7907872 10.4357955,23.5226463 8.95433891,23.5221013 Z M11.3862514,24.0402347 C11.4953425,24.1023649 11.5695244,24.2108203 11.5880698,24.3345357 C11.5951608,24.3830409 11.7582519,25.5357201 11.0753419,26.3684831 C10.670614,26.8622549 10.0722495,27.1320308 9.29606664,27.171271 C9.21424834,27.175086 9.1346119,27.177266 9.05661181,27.177266 C8.28970158,27.177266 7.6929735,26.9794303 7.28115472,26.5881189 C6.62224476,25.9619116 6.62224476,25.0517583 6.62224476,24.5078463 C6.62224476,24.3912159 6.67188115,24.2805805 6.75860853,24.2031902 C6.84533597,24.1258 6.96479065,24.0898299 7.07660899,24.1012749 C7.89151921,24.1922902 10.1900679,24.3541558 11.0306145,24.0157096 C11.1467966,23.9693844 11.2782513,23.9781045 11.3862514,24.0402347 Z M25.8877199,10.8170941 C23.0387996,10.8601852 20.9922462,12.0525535 19.8396962,14.3614716 C18.9620564,16.1200239 18.9478746,17.9031218 18.9478746,17.9205764 C18.9473291,17.9789402 18.9353291,18.0367586 18.911329,18.0902134 C17.6027784,20.9609519 17.4200504,23.2104153 18.3669632,24.7758759 C19.3695126,26.4329733 21.4127933,26.896066 22.2446147,27.0187938 C22.2407965,26.561701 22.1922509,26.1487904 22.1447961,25.8984257 C20.9933371,24.7851487 20.4527896,23.1651424 20.2804252,22.54714 C19.7169685,22.2651388 19.6564228,21.2271348 19.5975135,20.2180399 C19.5746043,19.820402 19.5506042,19.4096731 19.4955131,19.2094905 C19.2609667,18.3634872 19.6455137,17.9074854 19.9100601,17.7716667 C20.1080609,17.6691209 20.35188,17.7443939 20.4576986,17.9413037 C20.4882442,17.9980313 20.5580627,18.1300318 20.6382448,18.3002142 C21.3833386,16.6752988 23.2580732,13.909288 27.3779075,13.9703791 C27.4449987,13.9714701 27.5109989,13.9894701 27.5699082,14.0221975 C27.6659086,14.0761977 29.6617346,15.2238386 30.2301004,17.9413037 L30.2301004,17.9413037 L30.2371914,17.9298492 C30.2944643,17.8311215 30.3899192,17.7607576 30.5011925,17.7356666 C30.6130111,17.7100301 30.7286479,17.7334848 30.8224664,17.7978487 C31.4939236,18.2598505 31.3924687,19.1167629 31.2081043,19.6087648 C31.2004679,21.9602285 30.8693757,22.4380486 30.5115561,22.602231 L30.5091015,22.603322 C30.1711912,23.9822365 29.5242795,25.051877 28.5931849,25.7958799 C28.4622754,26.2240634 28.397366,26.6184286 28.3771841,26.9729754 C30.3141008,26.5578828 31.6433787,25.6993341 32.3153813,24.4060563 C33.6692048,21.8004097 32.004471,18.2391231 31.9881073,18.2036684 C31.9624709,18.1507591 31.9488344,18.0923952 31.9477435,18.0340314 C31.9477435,18.0165768 31.9106525,16.2771154 31.1284676,14.5223813 C30.1073727,12.2303723 28.3444568,10.9834584 25.8877199,10.8170941 Z M10.7818869,24.9258628 C9.74879454,25.1171586 8.22861064,25.0261432 7.45188226,24.959108 C7.4780641,25.3269843 7.56424607,25.7286507 7.84461009,25.9957017 C8.12988318,26.2665677 8.60279297,26.3875581 9.25515752,26.354858 C9.78861279,26.3276079 10.1873406,26.1592023 10.439341,25.8540012 C10.6727958,25.5716902 10.7562505,25.2103539 10.7818869,24.9258628 Z M30.4990106,19.1080356 L30.3702828,19.329491 C30.335919,20.4989501 29.379188,21.4414993 28.2010016,21.4414993 L28.2010016,21.4414993 L27.5780901,21.4414993 C26.9649968,21.4414993 26.2559031,21.1824073 26.0257204,20.084403 C25.9624474,20.1247669 25.8915381,20.153676 25.8113559,20.153676 L25.8113559,20.153676 L24.8764432,20.153676 C24.7962611,20.153676 24.7258971,20.1247669 24.6626242,20.084403 C24.4324415,21.1824073 23.7233478,21.4414993 23.1102544,21.4414993 L23.1102544,21.4414993 L22.4867975,21.4414993 C21.5017027,21.4414993 20.6769722,20.7787694 20.4102439,19.8793113 C20.4064257,19.8765841 20.4009712,19.8765841 20.3966075,19.8744022 C20.4026075,19.9698571 20.4086075,20.0685848 20.4146076,20.1705852 C20.4418804,20.6374961 20.497517,21.5936817 20.6622449,21.8058643 C20.8329728,21.8249553 20.9769734,21.9509558 21.0157008,22.1222292 C21.025519,22.1647748 22.0209775,26.3942459 25.0586257,26.2038815 C27.6702723,26.0402445 29.2570057,24.6700573 29.7746441,22.130411 C29.8035534,21.9885923 29.9055538,21.87241 30.0430088,21.8255008 C30.0833726,21.8113189 30.1253728,21.8042279 30.1668275,21.803137 C30.2437369,21.6122272 30.3899192,21.0504068 30.3899192,19.5296736 C30.3899192,19.474037 30.4013739,19.4194914 30.4231921,19.3682184 C30.4237376,19.3660366 30.468465,19.2547634 30.4990106,19.1080356 L30.4990106,19.1080356 Z M9.51179421,20.6504859 L8.85015691,20.6504859 C8.71773718,21.1289138 8.30599265,21.4926397 7.80025798,21.5457666 L7.67197344,21.5524641 L4.93215148,21.5524641 C4.72215115,21.5524641 4.52742364,21.4946939 4.35451429,21.4014986 C4.42147942,22.5495243 4.54654035,23.911165 5.11967213,25.0886252 L5.27251557,25.378923 L5.27251557,24.2033538 C5.27251557,24.1395886 5.28778832,24.0769133 5.31615196,24.0202331 C5.38324297,23.8856176 6.05797122,22.7045984 8.95433891,22.7045984 C10.0256131,22.7045984 12.5548894,22.8135987 12.9148899,23.8262124 C12.9225263,23.8463775 12.9279808,23.8676325 12.931799,23.8894326 C12.93889,23.9259477 13.0354356,24.4780348 12.9705263,25.3026227 C13.6861637,23.9651879 13.8836185,22.3705121 13.9256186,21.3142983 C13.8045275,21.3727498 13.6739251,21.4143402 13.5356522,21.4314822 L13.3948906,21.4401938 L10.6550686,21.4401938 C10.1325224,21.4401938 9.68852176,21.1110126 9.51179421,20.6504859 Z M3.04051244,18.5631284 C2.9777851,18.6170835 2.91560315,18.6824838 2.86160308,18.7702291 C2.65378462,19.1086753 2.63414822,19.6324223 2.80487575,20.2847896 C3.1970581,21.78191 3.40051296,22.2386216 3.60942229,22.3541621 C3.5641495,21.9012654 3.53851313,21.4745289 3.51833131,21.1017475 C3.48724033,20.5436655 3.4610585,20.0618838 3.38414927,19.7899278 C3.26687639,19.3779063 3.14960351,18.9582548 3.04051244,18.5631284 Z M15.2685295,18.5206182 C15.0394383,19.2634559 14.8147108,19.9501584 14.7388925,20.1801492 C14.7558016,20.4401152 14.7885289,21.230913 14.6827105,22.2260866 C15.0939839,21.8353202 15.4272571,21.0003772 15.642712,19.7724877 C15.7348939,19.2471059 15.6874393,18.8639695 15.5047117,18.6628637 C15.4348934,18.5860184 15.3498025,18.5473233 15.2685295,18.5206182 Z M7.67197344,19.6356922 L4.93215148,19.6356922 C4.89069682,19.6356922 4.85251498,19.6476823 4.815424,19.6596723 C4.77669668,19.6896474 4.73251483,19.7119925 4.68560563,19.7267076 C4.60836916,19.7864398 4.55068182,19.8698905 4.53069634,19.9681304 L4.52305996,20.0444437 L4.52305996,20.3262097 C4.52305996,20.5236367 4.66337832,20.6885169 4.8497387,20.7266521 L4.93215148,20.7349613 L7.67197344,20.7349613 C7.86908738,20.7349613 8.03446261,20.5947595 8.07272652,20.408554 L8.08106495,20.3262097 L8.08106495,20.0444437 C8.08106495,19.8193579 7.89724652,19.6356922 7.67197344,19.6356922 Z M23.9082576,19.6169467 L21.1755196,19.6169467 C21.3309748,20.1956762 21.8600678,20.6233142 22.4867975,20.6233142 L22.4867975,20.6233142 L23.1575475,20.6231094 C23.4195888,20.619832 23.8286851,20.5641161 23.9082576,19.6169467 L23.9082576,19.6169467 Z M29.5122794,19.6169467 L26.7795415,19.6169467 C26.8646328,20.6233142 27.32118,20.6233142 27.5780901,20.6233142 L28.2010016,20.6233142 C28.8282768,20.6233142 29.3568243,20.1956762 29.5122794,19.6169467 L29.5122794,19.6169467 Z M13.3948906,19.5228768 L10.6550686,19.5228768 C10.4574774,19.5228768 10.2924601,19.6634959 10.2542931,19.8494405 L10.2459771,19.9316283 L10.2459771,20.2139394 C10.2459771,20.4108894 10.3862955,20.5761272 10.5726558,20.6143593 L10.6550686,20.6226908 L13.3948906,20.6226908 C13.5920045,20.6226908 13.7573797,20.4820718 13.7956436,20.2961271 L13.803982,20.2139394 L13.803982,19.9316283 C13.803982,19.851513 13.7745275,19.7806628 13.7341638,19.7179876 C13.6485273,19.6852875 13.5743454,19.6286072 13.5263453,19.5495819 C13.4848907,19.5354119 13.4412543,19.5228768 13.3948906,19.5228768 Z M9.32252124,10.8382705 C7.52197325,11.0470062 6.30778973,11.6094482 5.61069786,12.5572067 C4.96269691,13.4379299 4.78324216,14.6696343 5.07724259,16.2196199 C5.08051526,16.237605 5.08269713,16.25559 5.083788,16.2741201 L5.08667663,16.33472 C5.09856834,16.5988852 5.13790286,17.6482219 5.05907864,18.6342567 L5.04287888,18.8181893 L7.67197344,18.8181893 C8.23316904,18.8181893 8.70500462,19.1974189 8.85034001,19.7119534 L8.87797515,19.832983 L9.43761232,19.832983 C9.48546693,19.2459795 9.94432819,18.772443 10.5281545,18.7119137 L10.6550686,18.7053739 L13.3948906,18.7053739 C13.3965269,18.7053739 13.3987088,18.7064639 13.4008906,18.7064639 C13.3212541,17.7799606 13.2317995,16.1160695 13.4761634,14.9699304 C13.6103454,14.3415431 13.2525268,13.1245537 12.3263437,12.107035 C11.8288884,11.5609431 10.7761597,10.6665948 9.32252124,10.8382705 Z M27.2524525,14.7869278 L27.2044523,14.7869278 C23.4642558,14.7869278 21.8753405,17.4143926 21.2977019,18.7987616 L21.2977019,18.7987616 L24.3309865,18.7987616 C24.5568056,18.7987616 24.740079,18.9820351 24.740079,19.2078541 L24.740079,19.2078541 L24.740079,19.2656726 L24.740079,19.2656726 L24.7368063,19.3638547 C24.7809882,19.3474911 24.8268066,19.335491 24.8764432,19.335491 L24.8764432,19.335491 L25.8113559,19.335491 C25.8609925,19.335491 25.9073563,19.3474911 25.9509928,19.3638547 C25.9504473,19.3300364 25.9477201,19.3000363 25.9477201,19.2656726 L25.9477201,19.2656726 L25.9477201,19.2078541 C25.9477201,18.9820351 26.1309935,18.7987616 26.3568126,18.7987616 L26.3568126,18.7987616 L29.5297341,18.7987616 C29.2891877,16.2509335 27.6500904,15.0432924 27.2524525,14.7869278 L27.2524525,14.7869278 Z M4.38396886,13.189954 C3.62633144,13.7780111 3.16323986,14.5573639 3.28487641,16.3411553 C3.34705829,16.5744162 3.69233152,17.8660709 4.06215025,19.1811606 C4.10142304,19.1413755 4.14560489,19.1081303 4.18978675,19.0743402 C4.3381506,18.0088614 4.27760506,16.5564311 4.26778691,16.3433353 C4.04142289,15.130161 4.08505935,14.0772172 4.38396886,13.189954 Z M14.2218008,13.9153516 C14.3276192,14.3578932 14.3532555,14.7797247 14.2763464,15.140516 C14.0178006,16.3526004 14.1808917,18.3156975 14.2528918,19.0242 C14.3554374,18.7026488 14.4645285,18.3522126 14.5698013,18.0066814 C14.5758013,17.9679862 14.586165,17.9320161 14.6025286,17.896591 C14.8158016,17.1897234 15.000711,16.528091 15.0421656,16.23815 C15.0590748,16.1187945 15.1010748,15.9994391 15.1501658,15.8610086 C15.3388933,15.3274517 15.5854391,14.6162241 14.2218008,13.9153516 Z" id="Combined-Shape" fill="#747474" fill-rule="nonzero" mask="url(#mask-2)"></path>
            </g>
        </g>
    </g>
</svg>