<?xml version="1.0" encoding="UTF-8"?>
<svg width="38px" height="38px" viewBox="0 0 38 38" version="1.1" xmlns="http://www.w3.org/2000/svg" xmlns:xlink="http://www.w3.org/1999/xlink">
    <title>Self</title>
    <defs>
        <circle id="path-1" cx="18" cy="18" r="18"></circle>
    </defs>
    <g id="Page-1" stroke="none" stroke-width="1" fill="none" fill-rule="evenodd">
        <g id="A08" transform="translate(-85.000000, -288.000000)">
            <g id="Self" transform="translate(86.000000, 289.000000)">
                <mask id="mask-2" fill="white">
                    <use xlink:href="#path-1"></use>
                </mask>
                <use id="Mask" stroke="#747474" fill="#F7F7F7" xlink:href="#path-1"></use>
                <path d="M4.19915508,36.090428 L6.23185945,32.1331834 L13.2148111,29.8610726 C13.1766297,30.1478909 13.1178425,30.3874115 13.0299647,30.5420388 C12.9196629,30.7354745 12.9651169,30.9804525 13.1378422,31.1205266 C13.168751,31.1459946 15.242061,32.7917135 18.0620293,32.7917135 C19.478983,32.7917135 21.0850255,32.3757359 22.7147041,31.129016 C22.8492481,31.0259311 22.9153079,30.8561444 22.8862173,30.6887831 C22.8843991,30.6796874 22.8189454,30.2922097 22.7680369,29.7464665 L29.7673519,32.262949 L31.7903595,36.090428 L4.19915508,36.090428 Z M11.7657365,22.95257 C11.6633134,22.9258892 11.5560419,22.9355914 11.4608914,22.9774316 C11.4130132,22.8858681 11.3408928,22.7009218 11.2766511,22.3504334 C11.197258,21.9132324 11.0560475,21.39417 10.9063522,20.8447886 C10.7948383,20.4342683 10.6348402,19.8448657 10.5257505,19.3288352 C10.7433238,19.7890787 10.9790787,20.2578114 11.2536211,20.7429164 C11.3354383,20.888448 11.4881639,20.9739477 11.6487682,20.9739477 C11.6869495,20.9739477 11.7251309,20.9690967 11.7633123,20.9593946 C11.962704,20.9072458 12.1020964,20.7283633 12.1033084,20.5221937 C12.1130053,19.2930587 12.2705793,16.0258761 12.8639059,14.585114 C12.8687544,14.5887523 12.8723907,14.5917842 12.8766331,14.5954225 C15.8723569,16.8687461 19.8480697,17.0324691 21.9844093,17.1203944 C22.3710716,17.1361603 22.8007637,17.1537454 23.0043978,17.1840644 C23.1892442,17.6424887 23.5983305,19.1748143 23.90863,20.4870236 C23.9510538,20.6683316 24.1001431,20.8047674 24.2849894,20.8320545 C24.3068074,20.8356928 24.3286253,20.8369055 24.3504433,20.8369055 C24.5116536,20.8369055 24.6625609,20.7520122 24.7443782,20.6095126 C24.764984,20.5737361 24.8504376,20.4227471 24.9710423,20.1832265 C24.7292269,21.3383829 24.5789255,22.4492735 24.5801377,22.9956231 C24.5292291,23.0544421 24.2437778,23.103559 23.9971139,23.0738463 C23.8783273,23.0580804 23.7559045,23.0926442 23.6607541,23.167229 C23.5656036,23.2424203 23.5037861,23.3521754 23.4892408,23.4728452 C23.468029,23.6535469 22.9140958,27.9036736 18.4274797,28.4021191 C13.9457119,28.8999581 12.1002782,23.3066967 12.0820966,23.2503032 C12.0354304,23.103559 11.9136136,22.9931976 11.7657365,22.95257 L11.7657365,22.95257 Z M10.9560487,12.0922804 C10.959685,12.1038016 10.9645334,12.1153229 10.9681697,12.1268441 C10.9808968,12.1729291 11.0008966,12.2178013 11.0154419,12.2638863 C11.0342296,12.3178542 11.0530173,12.3718222 11.0742292,12.4257901 C11.10635,12.5088644 11.1415011,12.5913322 11.1815007,12.6731937 C11.4596794,13.2692666 11.8451296,13.7998502 12.0827026,14.0994026 C11.5693751,15.2412186 11.3524078,17.2938194 11.2608937,18.7721771 C9.48333799,14.9101344 10.283935,12.9436398 10.9560487,12.0922804 L10.9560487,12.0922804 Z M13.1208727,9.15254368 C13.4299602,8.97790586 19.2529249,5.80592511 24.2892318,10.3070937 C26.5037524,13.2098412 25.294675,17.145256 24.4904417,19.0426232 C24.2316567,18.0269345 23.90863,16.8705653 23.7128747,16.5770767 C23.5104527,16.2726733 23.1353054,16.2569074 22.0213786,16.2114287 C19.9850379,16.1277482 16.1941715,15.9719081 13.4263239,13.8707968 C12.7845129,13.3838726 12.334821,12.8939165 12.0657331,12.4045668 C11.9802796,12.2353864 11.9075531,12.0674187 11.8536143,11.9061213 C11.7966453,11.7072282 11.7669486,11.5089415 11.7730092,11.3112612 C11.8063421,10.111839 12.9954196,9.24046898 13.1208727,9.15254368 L13.1208727,9.15254368 Z M14.1505582,27.9449075 C15.1147897,28.7507883 16.3378063,29.3444357 17.8553649,29.3444357 C18.0735442,29.3444357 18.2977842,29.3317016 18.5280846,29.3062337 C19.9335233,29.1503936 21.0032083,28.6634694 21.8213809,28.0382903 C21.8019871,28.3742255 21.7995629,28.7083416 21.8110779,29.0272982 C21.8056234,29.0776279 21.8074416,29.125532 21.8177445,29.1740425 C21.845017,29.7561686 21.9044102,30.2673481 21.94744,30.566294 C18.3153597,33.172521 14.9444886,31.26909 13.9796509,30.6111662 C14.2105575,29.8677428 14.2008606,28.7598841 14.1505582,27.9449075 L14.1505582,27.9449075 Z M32.9473162,36.3323741 L30.4885559,31.6820357 C30.4358293,31.5819828 30.3473454,31.5049724 30.2406799,31.4667704 L22.7128859,28.7604905 C22.7031891,28.1795771 22.7395523,27.5628873 22.8771265,27.0583781 C22.8819749,27.0401866 22.8777325,27.0219952 22.8807628,27.0038037 C23.7946919,25.8674451 24.1752937,24.6176932 24.3165043,23.987663 C24.5904406,23.9694716 24.9316489,23.8985249 25.1795248,23.6796212 C25.3813408,23.5013451 25.4880062,23.2587926 25.4880062,22.9786445 C25.4880062,22.3182952 25.7619425,20.5773743 26.1552714,19.1353995 C26.3001183,18.601784 26.4461773,17.8486583 26.0352727,17.4660317 C26.0310304,17.4623935 26.026182,17.4611807 26.0225456,17.4575424 C26.6443568,15.2206016 26.8976873,12.1923333 24.9831634,9.71829747 C24.9667999,9.69707412 24.9480123,9.67706354 24.9280125,9.65887209 C19.2826216,4.57618377 12.7142107,8.33635441 12.6481508,8.37455643 C12.6408781,8.37940749 12.6336055,8.38425854 12.6263329,8.38850321 C12.5620912,8.43155628 11.1681675,9.38114945 10.9075644,10.8837624 C10.5681742,11.136017 9.83909155,11.8024301 9.48333799,13.0812883 C9.12576625,14.3668168 9.24334069,15.8821637 9.82090994,17.6054994 C9.24273463,18.1852 9.62515457,19.5968558 10.0293924,21.0837028 C10.1736332,21.6136801 10.3099953,22.114551 10.3827218,22.51355 C10.4766601,23.0307932 10.6639307,23.7384402 11.2033186,23.9070143 C11.2596816,23.9252057 11.3154385,23.9349078 11.3699834,23.9385461 C11.6233138,24.5673635 12.2027013,25.8110516 13.1602663,26.9480166 C13.1584481,26.9765165 13.1505694,27.0031973 13.1542057,27.0323036 C13.2190535,27.5349938 13.2711741,28.2323323 13.269962,28.8866177 L5.77247069,31.3260899 C5.65792653,31.3630791 5.56338214,31.4437278 5.5088373,31.5504509 L3.05007711,36.3372252 C2.97795671,36.478512 2.98401725,36.6464797 3.06644056,36.7823091 C3.14946993,36.9175322 3.29613495,37 3.45431498,37 L32.5448964,37 C32.7048946,37 32.8521657,36.9163193 32.934589,36.7798835 C33.0170123,36.6434477 33.0218608,36.473661 32.9473162,36.3323741 L32.9473162,36.3323741 Z" id="Man" fill="#747474" fill-rule="nonzero" mask="url(#mask-2)"></path>
            </g>
        </g>
    </g>
</svg>