<?xml version="1.0" encoding="UTF-8"?>
<svg width="38px" height="38px" viewBox="0 0 38 38" version="1.1" xmlns="http://www.w3.org/2000/svg" xmlns:xlink="http://www.w3.org/1999/xlink">
    <title>Spouse</title>
    <defs>
        <circle id="path-1" cx="18" cy="18" r="18"></circle>
    </defs>
    <g id="Page-1" stroke="none" stroke-width="1" fill="none" fill-rule="evenodd">
        <g id="A08" transform="translate(-149.000000, -288.000000)">
            <g id="Spouse" transform="translate(150.000000, 289.000000)">
                <mask id="mask-2" fill="white">
                    <use xlink:href="#path-1"></use>
                </mask>
                <use id="Mask" stroke="#747474" fill="#F7F7F7" xlink:href="#path-1"></use>
                <path d="M27.7815364,37.0923495 L29.8894174,32.892951 L31.8342679,37.0923495 L27.7815364,37.0923495 Z M5.95484647,32.4068899 L8.95848603,34.2359828 C9.27424394,35.1020443 9.74878991,35.9226512 10.4306088,36.6268944 C10.5190938,36.7184097 10.6378818,36.7650764 10.7572758,36.7650764 C10.8500032,36.7650764 10.9433366,36.7371976 11.0233367,36.6790157 C11.0681852,36.6468944 11.4069735,36.395985 11.8524285,35.9893179 L13.6548547,37.0923495 L4.12029906,37.0923495 L5.95484647,32.4068899 Z M8.61121294,32.9602238 L6.6942412,31.7923438 L8.45909156,30.9777975 C8.44151579,31.6281012 8.48697038,32.2965867 8.61121294,32.9602238 L8.61121294,32.9602238 Z M10.0887903,27.7317334 C10.8245486,26.21355 13.2839452,25.7523374 13.885764,25.6614282 C13.9560671,25.719004 14.0306127,25.779004 14.1100067,25.8402162 C14.1354612,26.0511256 14.1754613,26.540217 14.0972794,27.0735509 C13.0815208,27.5050665 13.1548541,28.1365823 13.3869756,29.7977962 C13.4318241,30.1208268 13.4839454,30.4941606 13.5384909,30.9287065 C13.7990972,32.9929512 11.6439434,34.9984078 10.8106092,35.6899237 C8.84091015,33.3171939 9.18636507,29.5953717 10.0887903,27.7317334 L10.0887903,27.7317334 Z M12.4427322,21.5365753 C12.3663684,21.5026359 12.1693985,21.2711205 12.1693985,20.6111197 C12.1693985,20.0735434 12.1057621,19.5008155 12.0403075,18.9971786 C12.1415197,19.0729363 12.2736411,19.1056636 12.4039443,19.0783909 C12.6215202,19.0341484 12.7748538,18.8396027 12.767581,18.6183903 C12.7663689,18.5856631 12.688187,15.3959627 15.0542501,14.0256582 C16.0148572,14.0838401 22.2936517,14.6214164 22.3936518,18.644451 C22.3985004,18.8347542 22.5215308,19.0026332 22.702137,19.0638454 C22.8821372,19.1250576 23.0821375,19.0668757 23.2021375,18.9189968 C23.2233497,18.891724 23.2985013,18.7977845 23.3954711,18.6589965 C23.3815317,18.931118 23.3681983,19.2699062 23.3524408,19.6899067 C23.3318346,20.2632406 23.3033498,21.0329384 23.2827437,21.2389992 C23.2312285,21.2553629 23.1494102,21.2686963 23.087592,21.2693023 C22.8578948,21.2693023 22.6645612,21.4408176 22.6366824,21.6686966 C22.5742581,22.1777881 22.2815305,23.6329411 21.6839542,24.2505175 C21.6784996,24.2559721 21.6766814,24.2632449 21.6718329,24.2686994 C21.6669844,24.274154 21.6603177,24.2765782 21.6560753,24.2820328 C21.3778932,24.6286998 21.0912262,24.9323365 20.7984987,25.1941549 C20.6663773,25.2311247 20.5633469,25.313549 20.5100135,25.4299128 C19.7318308,26.0432468 18.9063754,26.371732 18.0433442,26.3959744 C16.0742512,26.4468836 14.4409161,24.9796093 13.9815217,24.5232452 C13.5045515,23.8450626 12.7681871,22.5783946 12.7681871,21.9711212 C12.7681871,21.7553634 12.6542475,21.5796056 12.4427322,21.5365753 L12.4427322,21.5365753 Z M10.1318206,15.2868717 C11.036064,12.4511111 12.9718236,10.6783819 13.6415213,10.2353511 C14.5797041,9.61474442 16.3633424,8.91353154 18.2269808,8.91353154 C18.8348602,8.91353154 19.4518305,8.98807708 20.050013,9.16444091 C21.8694089,9.70141118 23.2748649,11.0765642 24.2275932,13.2529301 C25.8839586,17.0359644 25.18517,19.8196037 24.1142598,21.6311209 C24.1863811,21.444454 24.2112296,21.0911203 24.2609266,19.72324 C24.2833509,19.1147545 24.3172902,18.1953596 24.3585024,18.031117 C24.5221389,17.5244498 24.1706234,17.0741463 23.7754715,16.8692976 C23.6481986,16.803843 23.4972894,16.8020248 23.3681983,16.8644491 C23.2391073,16.9268734 23.1475921,17.0462675 23.1203193,17.1868737 C23.1118345,17.2299041 23.1003193,17.2747526 23.0857738,17.3202071 C21.7997118,13.3771727 15.2663715,13.1202027 14.9615227,13.1105057 C14.8821287,13.1056572 14.8021286,13.1268694 14.7312195,13.1650512 C12.9887933,14.1038401 12.3003078,15.7777813 12.0300045,17.0305099 C11.9318225,16.9765704 11.8390952,16.9614189 11.7827315,16.9571764 C11.4954585,16.9402068 11.2221248,17.1244494 11.065761,17.4462679 C10.9536397,17.6789955 10.9857609,17.9711169 11.094852,18.782633 C11.1681854,19.3293002 11.2603067,20.010513 11.2603067,20.6111197 C11.2603067,21.5971814 11.6045494,22.0499091 11.8827316,22.2541518 C11.9354589,22.5868794 12.0693984,22.9590011 12.2348532,23.3220318 C10.0784872,21.3032417 9.21545601,18.1626323 10.1318206,15.2868717 L10.1318206,15.2868717 Z M23.3633499,22.6996069 C23.4178953,22.4790005 23.4572894,22.2814246 23.4851682,22.1262729 C23.6591077,22.0796062 23.8518352,21.9941515 23.9900172,21.8347574 C23.7875928,22.1559699 23.5742592,22.4450611 23.3633499,22.6996069 L23.3633499,22.6996069 Z M20.8027411,28.7990073 L19.5869822,30.5256758 L17.4645557,33.3893152 L14.4075828,28.7590072 C14.9233408,28.0371883 15.0469774,27.133551 15.053038,26.4717321 C15.8427358,26.9244598 16.8318278,27.3068845 17.9342532,27.3068845 C17.9766774,27.3068845 18.0203138,27.3062784 18.0627381,27.3050663 C18.9148603,27.282036 19.7263763,27.0238538 20.4942559,26.549914 C20.5578923,27.5899151 20.7197107,28.4268856 20.8027411,28.7990073 L20.8027411,28.7990073 Z M14.4403101,30.814767 C14.4281888,30.7165851 14.4166736,30.6335547 14.4045525,30.5420394 L16.8451611,34.2256797 L14.9318257,36.8075006 L12.5172777,35.3305294 C13.5378849,34.2378009 14.6651588,32.5947689 14.4403101,30.814767 L14.4403101,30.814767 Z M29.6524475,31.3371918 L26.7930505,37.0353797 L15.9554632,36.9917433 L17.6275861,34.7468924 C17.7081923,34.7141651 17.7815258,34.6674984 17.8330409,34.5941649 L20.3239527,31.0571915 L22.5160762,28.0996126 L29.6524475,31.3371918 Z M32.9579055,37.355986 L30.410024,31.8547681 L30.677297,31.3226463 C30.7324486,31.2123432 30.7403274,31.0838582 30.6991153,30.9674944 C30.6585091,30.8505246 30.5712363,30.7559791 30.4585089,30.7044638 L22.5572884,27.1196116 C22.365167,27.0329448 22.1421364,27.0905206 22.0136515,27.2541571 L21.4384993,26.955975 C21.4069842,26.6274898 21.3869841,26.2705197 21.3803174,25.8947617 C21.7015299,25.6099129 22.0124393,25.2796096 22.3148639,24.9087001 C22.9330463,24.4777905 28.3542643,20.4123317 25.0603214,12.8880812 C23.9954718,10.4547453 22.3960761,8.90868306 20.3069829,8.29292483 C17.3645556,7.42443905 14.3324312,8.68807676 13.1397026,9.47716851 C12.2148531,10.0898964 10.2142449,12.0353531 9.26575909,15.0105077 C8.097273,18.6759662 9.5172745,22.7262735 12.71849,24.8614273 C12.7681871,24.8941547 12.8106114,24.9141547 12.8578841,24.9432456 C11.7136405,25.2317308 9.9693962,25.8929436 9.27060757,27.3359754 C8.93181934,28.0359762 8.66394026,28.9426438 8.53484922,29.9408266 L5.53848239,31.3238585 C5.52454298,31.3305251 5.51545207,31.3426463 5.50272478,31.349919 C5.47787626,31.3638585 5.45605806,31.3802221 5.43423985,31.3990101 C5.41060347,31.4196161 5.39060345,31.4420404 5.37181555,31.4668889 C5.36211857,31.4790102 5.34878522,31.4868889 5.34090642,31.5002223 C5.33363369,31.5117374 5.33302763,31.5250708 5.32757308,31.536586 C5.32151246,31.5493132 5.31060336,31.5584041 5.30575487,31.5711314 L3.03120699,37.3814406 C2.97666148,37.5214408 2.99423726,37.6790168 3.07908583,37.8032593 C3.16332835,37.9268958 3.30393456,38.0014413 3.45423775,38.0014413 L32.5451778,38.0014413 C32.7003295,38.0014413 32.844572,37.9226534 32.9282085,37.7917441 C33.011845,37.6608349 33.0227541,37.4965923 32.9579055,37.355986 L32.9579055,37.355986 Z" id="Wife-Copy-3" fill="#747474" fill-rule="nonzero" mask="url(#mask-2)"></path>
            </g>
        </g>
    </g>
</svg>